<?xml version="1.0" encoding="utf-8"?>
<!-- Generator: Adobe Illustrator 17.1.0, SVG Export Plug-In . SVG Version: 6.00 Build 0)  -->
<!DOCTYPE svg PUBLIC "-//W3C//DTD SVG 1.1//EN" "http://www.w3.org/Graphics/SVG/1.1/DTD/svg11.dtd">
<svg version="1.1" id="Layer_1" xmlns="http://www.w3.org/2000/svg" xmlns:xlink="http://www.w3.org/1999/xlink" x="0px" y="0px"
	 viewBox="0 0 100 40" enable-background="new 0 0 100 40" xml:space="preserve">
<g>
	<path fill-rule="evenodd" clip-rule="evenodd" fill="#FFFFFF" d="M3.8,19.6c0,0.4-0.2,0.7-0.4,1c-0.2,0.3-0.5,0.5-0.8,0.7
		c-0.3,0.1-0.6,0.2-1,0.1c-0.3-0.1-0.7-0.3-0.9-0.6c-0.2-0.2-0.3-0.4-0.3-0.7c-0.1-0.2-0.1-0.5-0.1-0.8c0-0.3,0-0.5,0-0.8
		c0-0.3,0-0.5,0-0.7c0-1.1,0-2.3,0-3.4c0-1.1,0-2.3,0-3.4c0-0.5,0-0.9-0.1-1.4c-0.1-0.5,0-0.9,0.1-1.4c0.1-0.3,0.3-0.7,0.5-0.9
		C1,7,1.3,6.9,1.6,6.8c0.3-0.1,0.6-0.1,0.9,0C2.8,6.8,3.1,7,3.3,7.3c0.3,0.4,0.5,0.8,0.5,1.1c0,0.4,0,0.8,0,1.4c0,0.7,0,1.3,0,2
		c0,0.7,0,1.3,0,1.9c0,0.9,0,1.9,0,2.8c0,0.9,0,1.9,0,2.8V19.6z M0,3c0.1-0.7,0.3-1.2,0.7-1.6c0.4-0.3,0.9-0.5,1.3-0.5
		C2.5,1,3,1.1,3.4,1.5C3.8,1.8,4,2.3,4,3c0,0.7-0.1,1.2-0.5,1.5C3.1,4.9,2.7,5.1,2.2,5.1C1.7,5.2,1.2,5,0.8,4.7
		C0.4,4.4,0.1,3.9,0,3.2L0,3z"/>
	<path fill-rule="evenodd" clip-rule="evenodd" fill="#FFFFFF" d="M18.9,19.7c-0.1,0.5-0.2,0.9-0.5,1.2c-0.3,0.3-0.6,0.5-1,0.6
		c-0.4,0.1-0.7,0-1.1-0.1c-0.4-0.2-0.6-0.5-0.8-1c-0.2-0.5-0.2-1.1-0.2-1.7c0-0.6,0.1-1.1,0.1-1.6c0-1.1,0-2.1,0-3.1
		c0-1,0-2.1-0.1-3.1c0,0,0-0.1-0.1-0.1c0,0-0.1-0.1-0.1-0.1c-0.4-0.1-0.9-0.1-1.4,0.1c-0.5,0.2-0.9,0.4-1.3,0.7
		c-0.3,0.3-0.6,0.6-0.9,1c-0.3,0.4-0.5,0.9-0.5,1.3v4c0,0.3,0,0.6,0,1c0,0.4,0,0.7,0,1.1c0,0.3-0.2,0.7-0.3,1
		c-0.2,0.3-0.5,0.5-0.8,0.6c-0.2,0.1-0.4,0.1-0.6,0.1c-0.2,0-0.4-0.1-0.6-0.1C8.2,21,8,20.8,7.8,20.5c-0.2-0.3-0.3-0.6-0.3-0.9
		c-0.1-0.3-0.1-0.6-0.1-0.9c0-0.3,0-0.5,0-0.7c0-0.4,0-1.1,0-1.9c0-0.8,0-1.7,0-2.7c0-0.9,0-1.8,0-2.7c0-0.8,0-1.5,0-1.9
		c0-0.4,0.1-0.8,0.4-1.1C8,7.4,8.3,7.3,8.7,7.2C9,7.1,9.4,7.1,9.8,7.2c0.4,0.1,0.7,0.4,0.9,0.8c0.8-0.5,1.6-0.8,2.6-1
		c0.9-0.2,1.8-0.1,2.6,0.1c0.8,0.2,1.5,0.7,2.1,1.3c0.6,0.6,0.8,1.5,0.9,2.7c0,0,0,0.2,0,0.3c0,0.2,0,0.5,0,0.8V19.7z"/>
	<path fill-rule="evenodd" clip-rule="evenodd" fill="#FFFFFF" d="M26,18.6c0.2,0.2,0.4,0.4,0.5,0.7c0.1,0.3,0.2,0.6,0.2,0.9
		c0,0.3-0.1,0.6-0.2,0.8c-0.1,0.3-0.4,0.5-0.8,0.6c-0.3,0.1-0.6,0.1-1,0.1c-0.4-0.1-0.7-0.2-1-0.3c-0.3-0.2-0.6-0.4-0.9-0.6
		c-0.3-0.2-0.5-0.5-0.6-0.8c0-0.1-0.1-0.2-0.1-0.3c0-0.1,0-0.2,0-0.3V3.1c0-0.4,0.2-0.8,0.5-1.1c0.3-0.3,0.7-0.5,1.1-0.6
		c0.2,0,0.4,0,0.6,0.1c0.2,0.1,0.4,0.2,0.6,0.3c0.2,0.1,0.4,0.3,0.5,0.5c0.1,0.2,0.2,0.4,0.2,0.6c0,0.5,0,1.2,0,2c0,0.8,0,1.7,0,2.7
		c0,1,0,2,0,3.1s0,2.1,0,3c0,1,0,1.9,0,2.7c0,0.8,0,1.4,0,1.9L26,18.6z"/>
	<path fill-rule="evenodd" clip-rule="evenodd" fill="#FFFFFF" d="M43,18.1c0.2,0.3,0.3,0.5,0.3,0.9c0,0.3,0,0.7-0.1,1
		c-0.1,0.3-0.3,0.5-0.5,0.7c-0.2,0.2-0.6,0.3-0.9,0.3c-0.5,0-0.9-0.2-1.2-0.5c-0.3-0.3-0.6-0.7-0.9-1.1c-0.8,0.6-1.5,1.1-2.3,1.3
		c-0.8,0.2-1.6,0.3-2.4,0.2c-0.8-0.1-1.5-0.5-2.2-1c-0.7-0.5-1.3-1.2-1.7-2.1c-0.4-0.8-0.7-1.7-0.7-2.7c0-1-0.1-1.9,0-2.8
		c0-0.3,0-0.6,0-0.9c0-0.3,0-0.6,0.1-0.9c0-0.3,0-0.5,0-0.7c0-0.2,0-0.5,0-0.7c0-0.2,0.1-0.4,0.2-0.6c0.1-0.2,0.2-0.4,0.4-0.6
		c0.2-0.3,0.5-0.4,0.8-0.5c0.3,0,0.6,0,0.9,0.1c0.3,0.1,0.6,0.3,0.8,0.5c0.2,0.2,0.3,0.5,0.4,0.9c0,1,0,2-0.1,3c-0.1,1-0.1,2,0,3
		c0,0.5,0.2,0.9,0.4,1.4c0.2,0.5,0.5,0.8,1,1c0.4,0.2,0.9,0.2,1.4,0c0.5-0.2,0.8-0.5,1.1-0.8c0.1-0.2,0.3-0.3,0.4-0.5
		c0.1-0.2,0.3-0.3,0.4-0.5c-0.1-0.7-0.1-1.4-0.1-2c0-0.7,0-1.4,0-2c0-0.4,0-0.8,0-1.2c0-0.4,0.1-0.9,0.2-1.3
		c0.1-0.4,0.3-0.7,0.6-1.1c0.3-0.3,0.6-0.5,1.1-0.6c0.2,0,0.4,0,0.6,0.1c0.2,0.1,0.4,0.2,0.5,0.3c0.3,0.2,0.5,0.5,0.5,0.8
		c0.1,0.3,0.1,0.6,0.1,0.9c0,0.3,0,0.7-0.1,1c0,0.3-0.1,0.7-0.1,0.9c0,0.5-0.1,1.1-0.1,1.7c0,0.6,0,1.2,0.1,1.8
		c0.1,0.6,0.2,1.2,0.3,1.7C42.4,17.2,42.7,17.7,43,18.1L43,18.1z"/>
	<path fill-rule="evenodd" clip-rule="evenodd" fill="#FFFFFF" d="M44.7,18.5c-0.1-0.3-0.2-0.7-0.1-1c0-0.3,0.1-0.6,0.2-0.9
		c0.1-0.3,0.4-0.5,0.6-0.6c0.3-0.1,0.6-0.2,1-0.2c0.2,0,0.4,0.1,0.6,0.2c0.2,0.1,0.3,0.2,0.5,0.3c0.1,0.1,0.3,0.3,0.4,0.4
		c0.1,0.2,0.3,0.3,0.4,0.4c0.3,0.3,0.7,0.4,1.1,0.6c0.4,0.1,0.8,0.2,1.2,0.3c0.3,0,0.5-0.1,0.7-0.2c0.2-0.1,0.3-0.3,0.3-0.5
		c0.1-0.2,0.1-0.4,0-0.6c0-0.2-0.1-0.4-0.2-0.5c-0.3-0.3-0.7-0.5-1.2-0.6c-0.5-0.1-0.9-0.2-1.3-0.3c-0.6-0.2-1.2-0.4-1.7-0.7
		c-0.6-0.3-1-0.7-1.4-1.2c-0.4-0.5-0.6-1.1-0.7-1.7c-0.1-0.6,0-1.2,0.1-1.8c0.2-0.6,0.4-1.1,0.8-1.6c0.4-0.5,0.9-0.9,1.4-1.2
		c0.4-0.2,0.9-0.4,1.3-0.5c0.5-0.1,1-0.1,1.5,0c0.5,0,1,0.1,1.5,0.3c0.5,0.1,0.9,0.3,1.3,0.5c0.5,0.2,0.8,0.5,1,0.9
		c0.2,0.4,0.3,0.8,0.3,1.2c0,0.4-0.1,0.7-0.4,1c-0.3,0.3-0.6,0.4-1.2,0.4c-0.3,0-0.6-0.1-0.8-0.2c-0.3-0.1-0.5-0.2-0.8-0.3
		c-0.3-0.1-0.7-0.2-1.1-0.3c-0.4,0-0.7,0-1,0.1c-0.1,0-0.2,0.1-0.3,0.2c-0.1,0.1-0.2,0.2-0.2,0.4c0,0.2-0.1,0.3,0,0.5
		c0,0.2,0.1,0.3,0.3,0.4c0.5,0.3,1,0.4,1.5,0.6c0.5,0.1,1,0.3,1.5,0.5c0.5,0.2,1,0.4,1.4,0.7c0.4,0.3,0.8,0.7,1.1,1.2
		c0.4,0.7,0.6,1.5,0.7,2.3c0,0.8-0.2,1.6-0.5,2.3c-0.3,0.7-0.8,1.3-1.5,1.8c-0.6,0.5-1.4,0.8-2.2,0.9c-0.6,0.1-1.2,0-1.8-0.1
		c-0.6-0.1-1.1-0.3-1.7-0.6c-0.5-0.3-1-0.6-1.5-1c-0.5-0.4-0.9-0.8-1.2-1.2L44.7,18.5z"/>
	<path fill-rule="evenodd" clip-rule="evenodd" fill="#FFFFFF" d="M61.6,19.6c0,0.4-0.2,0.7-0.4,1c-0.2,0.3-0.5,0.5-0.8,0.7
		c-0.3,0.1-0.6,0.2-1,0.1c-0.3-0.1-0.7-0.3-0.9-0.6c-0.2-0.2-0.3-0.4-0.3-0.7C58,19.8,58,19.6,58,19.3c0-0.3,0-0.5,0-0.8
		c0-0.3,0-0.5,0-0.7c0-1.1,0-2.3,0-3.4c0-1.1,0-2.3,0-3.4c0-0.5,0-0.9-0.1-1.4c-0.1-0.5,0-0.9,0.1-1.4c0.1-0.3,0.3-0.7,0.5-0.9
		C58.7,7,59,6.9,59.3,6.8c0.3-0.1,0.6-0.1,0.9,0C60.5,6.8,60.8,7,61,7.3c0.3,0.4,0.5,0.8,0.5,1.1c0,0.4,0,0.8,0,1.4c0,0.7,0,1.3,0,2
		c0,0.7,0,1.3,0,1.9c0,0.9,0,1.9,0,2.8c0,0.9,0,1.9,0,2.8V19.6z M57.7,3c0.1-0.7,0.3-1.2,0.7-1.6c0.4-0.3,0.9-0.5,1.3-0.5
		c0.5,0,0.9,0.2,1.3,0.5c0.4,0.4,0.6,0.8,0.6,1.5c0,0.7-0.1,1.2-0.5,1.5c-0.4,0.4-0.8,0.6-1.3,0.6c-0.5,0-0.9-0.1-1.4-0.4
		c-0.4-0.3-0.7-0.8-0.8-1.5L57.7,3z"/>
	<path fill-rule="evenodd" clip-rule="evenodd" fill="#FFFFFF" d="M64.5,13.5c0.1-0.6,0.3-1.1,0.6-1.7c0.2-0.5,0.5-1.1,0.9-1.6
		c0.4-0.5,0.7-0.9,1.2-1.4c0.4-0.4,0.9-0.7,1.4-1c0.9-0.5,1.8-0.7,2.7-0.7c0.9,0,1.7,0.2,2.5,0.5c0.8,0.4,1.4,0.9,2,1.6
		c0.5,0.7,0.9,1.6,1.1,2.6c0.1,0.7,0.2,1.3,0.2,1.9c0,0.6,0,1.2-0.2,1.8c-0.2,0.9-0.6,1.8-1.2,2.7c-0.6,0.9-1.3,1.7-2.1,2.3
		c-0.8,0.6-1.7,1-2.7,1.2s-2,0-3-0.5c-0.4-0.2-0.8-0.5-1.2-0.7c-0.4-0.3-0.7-0.6-1-1c-0.3-0.4-0.6-0.9-0.8-1.3
		c-0.2-0.5-0.3-1-0.5-1.5c-0.1-0.5-0.2-1.1-0.1-1.6c0-0.5,0.1-1.1,0.2-1.6L64.5,13.5z M68,14.1c-0.1,0.3-0.1,0.6-0.1,0.9
		c0,0.3,0,0.6,0,0.9c0.1,0.4,0.2,0.9,0.4,1.2c0.2,0.4,0.4,0.7,0.7,0.9c0.3,0.2,0.6,0.3,1,0.3c0.4,0,0.8-0.1,1.3-0.4
		c0.6-0.3,1-0.8,1.5-1.5c0.4-0.7,0.7-1.4,0.8-2.2c0.1-0.8,0-1.5-0.2-2.1c-0.3-0.7-0.8-1.1-1.5-1.4c-0.5,0-0.9,0.1-1.3,0.3
		c-0.4,0.2-0.8,0.4-1.1,0.7c-0.3,0.3-0.6,0.7-0.8,1.1C68.3,13.2,68.1,13.6,68,14.1L68,14.1z"/>
	<path fill-rule="evenodd" clip-rule="evenodd" fill="#FFFFFF" d="M90.4,19.7c-0.1,0.5-0.2,0.9-0.5,1.2c-0.3,0.3-0.6,0.5-1,0.6
		c-0.4,0.1-0.7,0-1.1-0.1c-0.4-0.2-0.6-0.5-0.8-1c-0.2-0.5-0.2-1.1-0.2-1.7c0-0.6,0.1-1.1,0.1-1.6c0-1.1,0-2.1,0-3.1
		c0-1,0-2.1-0.1-3.1c0,0,0-0.1-0.1-0.1c0,0-0.1-0.1-0.1-0.1c-0.4-0.1-0.9-0.1-1.4,0.1c-0.5,0.2-0.9,0.4-1.3,0.7
		c-0.3,0.3-0.6,0.6-0.9,1c-0.3,0.4-0.5,0.9-0.5,1.3v4c0,0.3,0,0.6,0,1c0,0.4,0,0.7,0,1.1c0,0.3-0.2,0.7-0.3,1
		c-0.2,0.3-0.5,0.5-0.8,0.6c-0.2,0.1-0.4,0.1-0.6,0.1c-0.2,0-0.4-0.1-0.6-0.1c-0.4-0.1-0.6-0.3-0.8-0.6c-0.2-0.3-0.3-0.6-0.3-0.9
		c-0.1-0.3-0.1-0.6-0.1-0.9c0-0.3,0-0.5,0-0.7c0-0.4,0-1.1,0-1.9c0-0.8,0-1.7,0-2.7c0-0.9,0-1.8,0-2.7c0-0.8,0-1.5,0-1.9
		c0-0.4,0.1-0.8,0.4-1.1c0.3-0.3,0.5-0.5,0.9-0.6c0.3-0.1,0.7-0.1,1.1,0.1C81.6,7.4,82,7.6,82.2,8c0.8-0.5,1.6-0.8,2.6-1
		c0.9-0.2,1.8-0.1,2.6,0.1c0.8,0.2,1.5,0.7,2.1,1.3C90,9,90.3,9.9,90.3,11c0,0,0,0.2,0,0.3c0,0.2,0,0.5,0,0.8V19.7z"/>
	<path fill-rule="evenodd" clip-rule="evenodd" fill="#FFFFFF" d="M4.4,36.5c0,0.1-0.1,0.3-0.2,0.4C4.1,37,4,37.1,3.9,37.1
		c-0.1,0-0.2,0-0.4,0c-0.1,0-0.2-0.1-0.3-0.3c0-0.1-0.1-0.1-0.1-0.2c0-0.1,0-0.1,0-0.2v-2.6c-0.1,0-0.2,0-0.3-0.1
		c-0.1-0.1-0.2-0.2-0.2-0.3c0-0.1-0.1-0.2-0.1-0.3c0-0.1,0.1-0.2,0.2-0.3c0.1-0.1,0.1-0.1,0.2-0.1c0.1,0,0.2,0,0.2,0
		c0-0.2,0-0.4,0-0.6c0-0.2,0-0.4,0-0.6c0-0.3,0.1-0.6,0.3-0.8c0.1-0.2,0.3-0.4,0.5-0.5c0.2-0.1,0.5-0.2,0.7-0.2c0.3,0,0.5,0,0.8,0.1
		c0.1,0,0.2,0.1,0.3,0.1c0.1,0.1,0.2,0.1,0.3,0.2c0.1,0.1,0.1,0.1,0.1,0.2c0,0.1,0,0.2,0,0.3c0,0.1,0,0.2-0.1,0.3
		c0,0.1-0.1,0.1-0.2,0.2c-0.1,0.1-0.3,0.1-0.4,0c-0.1,0-0.2-0.1-0.4-0.1c-0.1,0-0.1-0.1-0.2-0.1c-0.1,0-0.1,0-0.2-0.1
		c-0.1,0-0.1,0-0.2,0c-0.1,0-0.1,0.1-0.2,0.1c0,0.1-0.1,0.1-0.1,0.2c0,0.1,0,0.1,0,0.2c0,0.2,0,0.3,0,0.5c0,0.2,0,0.3,0,0.5
		c0.1,0,0.2,0,0.3,0c0.1,0,0.2,0,0.3,0c0.1,0,0.2,0,0.3,0c0.1,0,0.2,0,0.2,0c0.1,0,0.2,0.1,0.3,0.2C5.9,32.9,5.9,33,6,33.1
		c0,0.1,0,0.2,0,0.3c0,0.1-0.1,0.2-0.2,0.3c-0.1,0.1-0.2,0.1-0.3,0.1c-0.1,0-0.2,0-0.4,0.1c-0.1,0-0.3,0-0.4,0c-0.1,0-0.2,0-0.3,0
		V36.5z"/>
	<path fill-rule="evenodd" clip-rule="evenodd" fill="#FFFFFF" d="M10.6,36.3c0,0.2,0,0.4,0,0.5c-0.1,0.1-0.2,0.2-0.3,0.3
		c-0.1,0-0.3,0-0.4,0c-0.2,0-0.3-0.2-0.4-0.3C9.2,36.9,9.1,37,8.9,37c-0.2,0.1-0.4,0.1-0.6,0.1c-0.3,0-0.6,0-0.9-0.1
		c-0.3-0.1-0.5-0.2-0.7-0.4c-0.2-0.2-0.3-0.4-0.4-0.7c-0.1-0.3-0.1-0.6-0.1-0.9c0-0.1,0-0.3,0.1-0.4c0-0.1,0.1-0.3,0.1-0.4
		c0.1-0.1,0.1-0.3,0.2-0.5c0.1-0.2,0.2-0.3,0.3-0.4c0.4-0.4,0.8-0.8,1.3-1c0.1,0,0.2-0.1,0.4-0.1c0.2,0,0.3,0,0.5,0
		c0.2,0,0.3,0,0.5,0.1c0.2,0,0.3,0.1,0.3,0.2c0.1,0.1,0.1,0.1,0.1,0.2c0,0.1,0,0.1,0,0.2c0,0.1,0,0.1,0,0.2c0,0.1,0,0.2,0,0.3
		c0,0.2,0,0.4,0,0.5c0,0.2,0,0.4,0,0.5c0,0.1,0,0.1,0,0.2c0,0.1,0,0.2,0,0.3c0,0.1,0,0.2,0,0.3c0,0.1,0,0.2,0,0.2L10.6,36.3z
		 M8.5,35.9c0.1,0,0.2-0.1,0.3-0.2c0.1-0.1,0.2-0.1,0.3-0.2c-0.1-0.4-0.1-0.7-0.1-1.1c0-0.4,0-0.7,0-1.1c-0.3,0.1-0.6,0.2-0.8,0.4
		c-0.2,0.2-0.4,0.5-0.5,0.7c0,0.1-0.1,0.2-0.1,0.4c0,0.1,0,0.2,0,0.3c0,0.2,0,0.3,0.1,0.4c0.1,0.1,0.2,0.2,0.3,0.2
		c0.1,0.1,0.2,0.1,0.3,0.1C8.3,35.9,8.4,35.9,8.5,35.9L8.5,35.9z"/>
	<path fill-rule="evenodd" clip-rule="evenodd" fill="#FFFFFF" d="M13.7,35.5c0.2-0.1,0.3-0.2,0.5-0.1c0.2,0,0.3,0.1,0.4,0.2
		c0.1,0.1,0.2,0.2,0.2,0.4c0,0.2,0,0.3-0.2,0.5c-0.1,0.1-0.2,0.2-0.3,0.3c-0.1,0.1-0.3,0.2-0.4,0.2c-0.3,0.1-0.6,0.2-0.9,0.2
		c-0.3,0-0.6-0.1-0.8-0.2c-0.3-0.1-0.5-0.3-0.7-0.6c-0.2-0.2-0.3-0.5-0.4-0.8c-0.1-0.6-0.1-1.2,0.1-1.7c0.1-0.2,0.2-0.4,0.3-0.6
		c0.1-0.2,0.2-0.4,0.4-0.5c0.1-0.2,0.3-0.3,0.5-0.4c0.2-0.1,0.4-0.2,0.6-0.2c0.1,0,0.3,0,0.6,0c0.2,0,0.5,0.1,0.7,0.2
		c0.2,0.1,0.4,0.2,0.6,0.3c0.2,0.1,0.3,0.3,0.3,0.5c0,0.1,0,0.2,0,0.3c0,0.1-0.1,0.2-0.2,0.2c-0.1,0.1-0.2,0.1-0.3,0.1
		c-0.1,0-0.2,0-0.3,0c-0.1,0-0.2-0.1-0.3-0.1c-0.1-0.1-0.2-0.1-0.3-0.2c0,0-0.1,0-0.1-0.1c0,0-0.1,0-0.2,0l-0.3,0c0,0-0.1,0-0.1,0.1
		c0,0-0.1,0-0.1,0.1c-0.2,0.2-0.4,0.5-0.5,0.8c-0.1,0.3-0.1,0.6-0.1,0.9c0,0.2,0.1,0.4,0.2,0.5c0.1,0.1,0.2,0.2,0.3,0.3
		c0.1,0.1,0.3,0.1,0.4,0C13.4,35.8,13.5,35.7,13.7,35.5L13.7,35.5z"/>
	<path fill-rule="evenodd" clip-rule="evenodd" fill="#FFFFFF" d="M16.1,33.4c-0.1,0-0.3-0.1-0.3-0.2c-0.1-0.1-0.2-0.2-0.2-0.3
		c0-0.1,0-0.2,0-0.3c0-0.1,0.1-0.2,0.2-0.3c0.1-0.1,0.2-0.1,0.4-0.1c0.1,0,0.3,0,0.4,0c0,0,0-0.1,0-0.3c0-0.2,0-0.3,0-0.5
		c0-0.2,0-0.4,0-0.5c0-0.2,0.1-0.3,0.1-0.4c0.1-0.2,0.3-0.3,0.5-0.3c0.2,0,0.4,0.1,0.5,0.3c0,0,0.1,0.1,0.1,0.1c0,0,0,0.1,0,0.1
		c0,0.2,0,0.5,0,0.7c0,0.2,0,0.5,0,0.7h0.8c0.1,0,0.2,0,0.3,0.1c0.1,0.1,0.1,0.2,0.2,0.3c0,0.1,0,0.2,0,0.3c0,0.1-0.1,0.2-0.2,0.3
		c-0.2,0.1-0.3,0.2-0.5,0.2c-0.2,0-0.4,0-0.6,0c0,0.4,0,0.7,0,1.1c0,0.4,0,0.7,0,1.1c0,0.2,0,0.3,0,0.5c0,0.2,0,0.3,0,0.5
		c0,0.1-0.1,0.2-0.2,0.3C17.5,37,17.4,37,17.3,37c-0.1,0-0.2,0-0.3,0c-0.1,0-0.2-0.1-0.3-0.2c0,0-0.1-0.1-0.1-0.2c0-0.1,0-0.2,0-0.4
		c0-0.1,0-0.3,0-0.5c0-0.1,0-0.3,0-0.5c0-0.2,0-0.4,0-0.7c0-0.2,0-0.4,0-0.7c0-0.2,0-0.4,0-0.5L16.1,33.4z"/>
	<path fill-rule="evenodd" clip-rule="evenodd" fill="#FFFFFF" d="M19.1,34.4c0-0.2,0.1-0.4,0.2-0.6c0.1-0.2,0.2-0.4,0.3-0.5
		c0.1-0.2,0.3-0.3,0.4-0.5c0.1-0.1,0.3-0.3,0.5-0.3c0.3-0.2,0.6-0.2,0.9-0.2c0.3,0,0.6,0.1,0.9,0.2c0.3,0.1,0.5,0.3,0.7,0.6
		c0.2,0.3,0.3,0.5,0.4,0.9c0,0.2,0.1,0.4,0.1,0.6c0,0.2,0,0.4-0.1,0.6c-0.1,0.3-0.2,0.6-0.4,0.9c-0.2,0.3-0.4,0.6-0.7,0.8
		c-0.3,0.2-0.6,0.4-0.9,0.4c-0.3,0.1-0.7,0-1-0.2c-0.2-0.1-0.3-0.2-0.4-0.3c-0.1-0.1-0.2-0.2-0.3-0.3c-0.1-0.1-0.2-0.3-0.3-0.5
		c-0.1-0.2-0.1-0.3-0.2-0.5c0-0.2-0.1-0.4,0-0.6C19,34.8,19.1,34.6,19.1,34.4L19.1,34.4z M20.3,34.6c0,0.1,0,0.2,0,0.3
		c0,0.1,0,0.2,0,0.3c0,0.2,0.1,0.3,0.1,0.4c0.1,0.1,0.1,0.2,0.3,0.3C20.7,36,20.8,36,21,36c0.1,0,0.3,0,0.4-0.1
		c0.2-0.1,0.4-0.3,0.5-0.5c0.1-0.2,0.2-0.5,0.3-0.7c0-0.3,0-0.5-0.1-0.7c-0.1-0.2-0.3-0.4-0.5-0.5c-0.2,0-0.3,0-0.5,0.1
		c-0.1,0.1-0.3,0.1-0.4,0.3c-0.1,0.1-0.2,0.2-0.3,0.4C20.4,34.3,20.3,34.4,20.3,34.6L20.3,34.6z"/>
	<path fill-rule="evenodd" clip-rule="evenodd" fill="#FFFFFF" d="M24.3,33.7C24.3,33.7,24.3,33.7,24.3,33.7c0-0.1,0-0.1,0-0.3
		c-0.1-0.1-0.2-0.1-0.3-0.2c-0.1-0.1-0.1-0.2-0.1-0.3c0-0.1,0-0.2,0.1-0.3c0-0.1,0.1-0.2,0.2-0.2c0.2-0.1,0.3-0.1,0.5,0
		c0.2,0.1,0.3,0.1,0.5,0.2c0.2-0.1,0.3-0.2,0.5-0.3c0.2-0.1,0.4-0.1,0.5-0.2c0.2,0,0.4,0,0.6,0c0.2,0,0.4,0.1,0.6,0.3
		c0.1,0.1,0.2,0.1,0.3,0.2c0.1,0.1,0.1,0.2,0.1,0.3c0,0.2,0,0.3,0,0.4c-0.1,0.1-0.1,0.2-0.3,0.3c-0.1,0.1-0.2,0.1-0.4,0
		c-0.1,0-0.3-0.1-0.4-0.2c0,0-0.1,0-0.1-0.1c0,0,0,0-0.1-0.1c-0.1,0-0.2,0-0.3,0c-0.1,0-0.2,0.1-0.3,0.2c-0.1,0.1-0.2,0.1-0.3,0.2
		c-0.1,0.1-0.2,0.2-0.2,0.2v2.6c0,0.1,0,0.2-0.1,0.3c-0.1,0.2-0.2,0.3-0.3,0.3c-0.1,0.1-0.3,0.1-0.4,0c-0.1,0-0.2-0.1-0.3-0.2
		c-0.1-0.1-0.1-0.2-0.1-0.4V33.7z"/>
	<path fill-rule="evenodd" clip-rule="evenodd" fill="#FFFFFF" d="M31.8,32.3c0.1-0.1,0.2-0.2,0.3-0.3c0.1-0.1,0.2-0.1,0.4,0
		c0.1,0,0.2,0.1,0.3,0.2c0.1,0.1,0.1,0.2,0.2,0.4c0,0.1,0,0.3-0.1,0.5c-0.1,0.2-0.1,0.4-0.2,0.6c-0.1,0.2-0.2,0.4-0.3,0.6
		c-0.1,0.2-0.2,0.4-0.2,0.5c-0.2,0.5-0.5,1-0.7,1.5c-0.3,0.5-0.5,1-0.8,1.4c0,0.1-0.1,0.2-0.1,0.3c0,0.1-0.1,0.2-0.2,0.3
		c-0.1,0.1-0.1,0.2-0.2,0.3c-0.1,0.1-0.1,0.2-0.2,0.2c-0.1,0.1-0.2,0.2-0.4,0.2c-0.1,0-0.2,0-0.3,0c-0.1-0.1-0.2-0.1-0.3-0.3
		c-0.1-0.1-0.1-0.3-0.1-0.4c0-0.1,0-0.1,0.1-0.2c0-0.1,0.1-0.2,0.2-0.3c0.1-0.1,0.1-0.2,0.2-0.3c0.1-0.1,0.1-0.2,0.1-0.2
		c0.1-0.2,0.3-0.4,0.4-0.7c0.1-0.2,0.3-0.4,0.4-0.7c-0.4-0.4-0.8-0.8-1.1-1.2c-0.3-0.5-0.6-0.9-0.7-1.5c0-0.1-0.1-0.2-0.1-0.3
		c0-0.1,0-0.2,0-0.3c0-0.1,0-0.2,0.1-0.3c0-0.1,0.1-0.2,0.2-0.2c0.1-0.1,0.2-0.1,0.3-0.1c0.1,0,0.2,0,0.3,0.1c0.1,0,0.2,0.1,0.2,0.2
		c0,0.1,0.1,0.2,0.1,0.3c0,0.1,0.1,0.2,0.1,0.3c0,0.1,0,0.2,0.1,0.3c0.3,0.7,0.7,1.2,1.2,1.7c0.2-0.4,0.4-0.8,0.5-1.2
		C31.5,33.2,31.6,32.8,31.8,32.3L31.8,32.3z"/>
	<path fill-rule="evenodd" clip-rule="evenodd" fill="#FFFFFF" d="M38.4,34.4c0-0.2,0.1-0.4,0.2-0.6c0.1-0.2,0.2-0.4,0.3-0.5
		c0.1-0.2,0.3-0.3,0.4-0.5c0.1-0.1,0.3-0.3,0.5-0.3c0.3-0.2,0.6-0.2,0.9-0.2c0.3,0,0.6,0.1,0.9,0.2c0.3,0.1,0.5,0.3,0.7,0.6
		c0.2,0.3,0.3,0.5,0.4,0.9c0,0.2,0.1,0.4,0.1,0.6c0,0.2,0,0.4-0.1,0.6c-0.1,0.3-0.2,0.6-0.4,0.9c-0.2,0.3-0.4,0.6-0.7,0.8
		c-0.3,0.2-0.6,0.4-0.9,0.4c-0.3,0.1-0.7,0-1-0.2c-0.2-0.1-0.3-0.2-0.4-0.3c-0.1-0.1-0.2-0.2-0.3-0.3c-0.1-0.1-0.2-0.3-0.3-0.5
		c-0.1-0.2-0.1-0.3-0.2-0.5c0-0.2-0.1-0.4,0-0.6C38.3,34.8,38.4,34.6,38.4,34.4L38.4,34.4z M39.6,34.6c0,0.1,0,0.2,0,0.3
		c0,0.1,0,0.2,0,0.3c0,0.2,0.1,0.3,0.1,0.4c0.1,0.1,0.1,0.2,0.3,0.3C40,36,40.2,36,40.3,36c0.1,0,0.3,0,0.4-0.1
		c0.2-0.1,0.4-0.3,0.5-0.5c0.1-0.2,0.2-0.5,0.3-0.7c0-0.3,0-0.5-0.1-0.7c-0.1-0.2-0.3-0.4-0.5-0.5c-0.2,0-0.3,0-0.5,0.1
		c-0.1,0.1-0.3,0.1-0.4,0.3c-0.1,0.1-0.2,0.2-0.3,0.4C39.7,34.3,39.7,34.4,39.6,34.6L39.6,34.6z"/>
	<path fill-rule="evenodd" clip-rule="evenodd" fill="#FFFFFF" d="M45.1,36.5c0,0.1-0.1,0.3-0.2,0.4c-0.1,0.1-0.2,0.2-0.3,0.2
		c-0.1,0-0.2,0-0.4,0c-0.1,0-0.2-0.1-0.3-0.3c0-0.1-0.1-0.1-0.1-0.2c0-0.1,0-0.1,0-0.2v-2.6c-0.1,0-0.2,0-0.3-0.1
		c-0.1-0.1-0.2-0.2-0.2-0.3c0-0.1-0.1-0.2-0.1-0.3c0-0.1,0.1-0.2,0.2-0.3c0.1-0.1,0.1-0.1,0.2-0.1c0.1,0,0.2,0,0.2,0
		c0-0.2,0-0.4,0-0.6c0-0.2,0-0.4,0-0.6c0-0.3,0.1-0.6,0.3-0.8c0.1-0.2,0.3-0.4,0.5-0.5c0.2-0.1,0.5-0.2,0.7-0.2c0.3,0,0.5,0,0.8,0.1
		c0.1,0,0.2,0.1,0.3,0.1c0.1,0.1,0.2,0.1,0.3,0.2c0.1,0.1,0.1,0.1,0.1,0.2c0,0.1,0,0.2,0,0.3c0,0.1,0,0.2-0.1,0.3
		c0,0.1-0.1,0.1-0.2,0.2c-0.1,0.1-0.3,0.1-0.4,0c-0.1,0-0.2-0.1-0.4-0.1c-0.1,0-0.1-0.1-0.2-0.1c-0.1,0-0.1,0-0.2-0.1
		c-0.1,0-0.1,0-0.2,0c-0.1,0-0.1,0.1-0.2,0.1c0,0.1-0.1,0.1-0.1,0.2c0,0.1,0,0.1,0,0.2c0,0.2,0,0.3,0,0.5c0,0.2,0,0.3,0,0.5
		c0.1,0,0.2,0,0.3,0c0.1,0,0.2,0,0.3,0c0.1,0,0.2,0,0.3,0c0.1,0,0.2,0,0.2,0c0.1,0,0.2,0.1,0.3,0.2c0.1,0.1,0.1,0.2,0.1,0.3
		c0,0.1,0,0.2,0,0.3c0,0.1-0.1,0.2-0.2,0.3c-0.1,0.1-0.2,0.1-0.3,0.1c-0.1,0-0.2,0-0.4,0.1c-0.1,0-0.3,0-0.4,0c-0.1,0-0.2,0-0.3,0
		V36.5z"/>
	<path fill-rule="evenodd" clip-rule="evenodd" fill="#FFFFFF" d="M55.9,35.4c0.2,0,0.3,0,0.4,0c0.1,0,0.2,0.1,0.3,0.2
		c0.1,0.1,0.1,0.2,0.1,0.3c0,0.1-0.1,0.3-0.2,0.4c-0.1,0.1-0.2,0.2-0.4,0.3c-0.2,0.1-0.3,0.1-0.4,0.2c-0.3,0.1-0.6,0.2-0.9,0.3
		c-0.3,0-0.6,0-0.8,0c-0.3,0-0.5-0.1-0.7-0.3c-0.2-0.1-0.4-0.4-0.6-0.6c-0.1-0.2-0.2-0.4-0.3-0.6c-0.1-0.2-0.1-0.5-0.1-0.7
		c0-0.2,0-0.5,0.1-0.7c0-0.2,0.1-0.4,0.2-0.6c0.1-0.2,0.3-0.4,0.5-0.6c0.2-0.2,0.5-0.3,0.8-0.5c0.3-0.1,0.6-0.2,0.9-0.2
		c0.3,0,0.6,0,0.8,0.1c0.2,0.1,0.4,0.2,0.5,0.4c0.1,0.2,0.2,0.4,0.3,0.6c0.1,0.2,0.1,0.4,0,0.6c0,0.2-0.2,0.4-0.3,0.6
		c-0.2,0.2-0.3,0.3-0.5,0.4c-0.2,0.1-0.4,0.2-0.6,0.3c-0.2,0.1-0.4,0.1-0.7,0.2c-0.2,0.1-0.4,0.1-0.6,0.2c0.1,0.2,0.3,0.3,0.5,0.3
		c0.2,0,0.4,0.1,0.6,0c0.2,0,0.4-0.1,0.6-0.2C55.5,35.6,55.7,35.5,55.9,35.4L55.9,35.4z M53.9,33.7c-0.2,0.1-0.3,0.2-0.3,0.3
		c-0.1,0.1-0.1,0.3-0.2,0.5c0.2,0,0.4-0.1,0.6-0.2c0.2-0.1,0.4-0.1,0.6-0.2c0.2-0.1,0.4-0.1,0.5-0.2c0.1-0.1,0.2-0.2,0.2-0.3
		c0-0.1,0-0.1,0-0.2c0,0,0-0.1-0.1-0.1c-0.2-0.1-0.4-0.1-0.6,0c-0.2,0-0.4,0.1-0.5,0.2L53.9,33.7z"/>
	<path fill-rule="evenodd" clip-rule="evenodd" fill="#FFFFFF" d="M59.7,33.9v-0.1c-0.1-0.2-0.2-0.3-0.3-0.3
		c-0.1-0.1-0.3-0.1-0.4-0.1c-0.1,0-0.2,0.1-0.2,0.1c-0.1,0-0.1,0.1-0.1,0.1c0,0-0.1,0.1-0.1,0.1c0,0-0.1,0.1-0.1,0.2v2.6
		c0,0.2-0.1,0.4-0.2,0.5c-0.1,0.1-0.3,0.2-0.4,0.2c-0.1,0-0.3,0-0.4-0.1c-0.1-0.1-0.2-0.2-0.2-0.5c0-0.5,0-1.1,0-1.7
		c0-0.7,0-1.4,0-2.2c0-0.1,0-0.3,0.1-0.3c0.1-0.1,0.2-0.2,0.3-0.2c0.1,0,0.2,0,0.4,0c0.1,0,0.2,0.1,0.3,0.2c0.4-0.2,0.7-0.2,1.1-0.2
		c0.4,0.1,0.7,0.2,1,0.5c0.1-0.1,0.3-0.3,0.4-0.4c0.2-0.1,0.3-0.2,0.5-0.2c0.2,0,0.4,0,0.6,0c0.2,0,0.4,0.1,0.6,0.2
		c0.2,0.1,0.3,0.3,0.5,0.4c0.1,0.2,0.2,0.3,0.3,0.5c0,0.1,0,0.3,0,0.4v2.7c0,0.1,0,0.2,0,0.2c-0.1,0.2-0.2,0.3-0.3,0.4
		c-0.1,0.1-0.3,0.1-0.4,0.1c-0.1,0-0.3-0.1-0.4-0.2c-0.1-0.1-0.2-0.3-0.2-0.4v-2.7c-0.1-0.2-0.1-0.3-0.3-0.4
		c-0.1-0.1-0.2-0.1-0.3-0.1c-0.1,0-0.2,0-0.3,0.1c-0.1,0.1-0.2,0.2-0.3,0.3v2.6c0,0.2-0.1,0.3-0.2,0.5c-0.1,0.1-0.2,0.2-0.4,0.2
		c-0.1,0-0.3,0-0.4,0c-0.1-0.1-0.2-0.2-0.2-0.4L59.7,33.9z"/>
	<path fill-rule="evenodd" clip-rule="evenodd" fill="#FFFFFF" d="M64,34.4c0-0.2,0.1-0.4,0.2-0.6c0.1-0.2,0.2-0.4,0.3-0.5
		c0.1-0.2,0.3-0.3,0.4-0.5c0.1-0.1,0.3-0.3,0.5-0.3c0.3-0.2,0.6-0.2,0.9-0.2c0.3,0,0.6,0.1,0.9,0.2c0.3,0.1,0.5,0.3,0.7,0.6
		c0.2,0.3,0.3,0.5,0.4,0.9c0,0.2,0.1,0.4,0.1,0.6c0,0.2,0,0.4-0.1,0.6c-0.1,0.3-0.2,0.6-0.4,0.9c-0.2,0.3-0.4,0.6-0.7,0.8
		c-0.3,0.2-0.6,0.4-0.9,0.4c-0.3,0.1-0.7,0-1-0.2c-0.2-0.1-0.3-0.2-0.4-0.3c-0.1-0.1-0.2-0.2-0.3-0.3c-0.1-0.1-0.2-0.3-0.3-0.5
		c-0.1-0.2-0.1-0.3-0.2-0.5c0-0.2-0.1-0.4,0-0.6C63.9,34.8,63.9,34.6,64,34.4L64,34.4z M65.2,34.6c0,0.1,0,0.2,0,0.3
		c0,0.1,0,0.2,0,0.3c0,0.2,0.1,0.3,0.1,0.4c0.1,0.1,0.1,0.2,0.3,0.3c0.1,0.1,0.2,0.1,0.4,0.1c0.1,0,0.3,0,0.4-0.1
		c0.2-0.1,0.4-0.3,0.5-0.5c0.1-0.2,0.2-0.5,0.3-0.7c0-0.3,0-0.5-0.1-0.7c-0.1-0.2-0.3-0.4-0.5-0.5c-0.2,0-0.3,0-0.5,0.1
		c-0.1,0.1-0.3,0.1-0.4,0.3c-0.1,0.1-0.2,0.2-0.3,0.4C65.3,34.3,65.2,34.4,65.2,34.6L65.2,34.6z"/>
	<path fill-rule="evenodd" clip-rule="evenodd" fill="#FFFFFF" d="M69.2,33.4c-0.1,0-0.3-0.1-0.3-0.2c-0.1-0.1-0.2-0.2-0.2-0.3
		c0-0.1,0-0.2,0-0.3c0-0.1,0.1-0.2,0.2-0.3c0.1-0.1,0.2-0.1,0.4-0.1c0.1,0,0.3,0,0.4,0c0,0,0-0.1,0-0.3c0-0.2,0-0.3,0-0.5
		c0-0.2,0-0.4,0-0.5c0-0.2,0.1-0.3,0.1-0.4c0.1-0.2,0.3-0.3,0.5-0.3c0.2,0,0.4,0.1,0.5,0.3c0,0,0.1,0.1,0.1,0.1c0,0,0,0.1,0,0.1
		c0,0.2,0,0.5,0,0.7c0,0.2,0,0.5,0,0.7h0.8c0.1,0,0.2,0,0.3,0.1c0.1,0.1,0.1,0.2,0.2,0.3c0,0.1,0,0.2,0,0.3c0,0.1-0.1,0.2-0.2,0.3
		c-0.2,0.1-0.3,0.2-0.5,0.2c-0.2,0-0.4,0-0.6,0c0,0.4,0,0.7,0,1.1c0,0.4,0,0.7,0,1.1c0,0.2,0,0.3,0,0.5c0,0.2,0,0.3,0,0.5
		c0,0.1-0.1,0.2-0.2,0.3C70.6,37,70.5,37,70.4,37c-0.1,0-0.2,0-0.3,0c-0.1,0-0.2-0.1-0.3-0.2c0,0-0.1-0.1-0.1-0.2c0-0.1,0-0.2,0-0.4
		c0-0.1,0-0.3,0-0.5c0-0.1,0-0.3,0-0.5c0-0.2,0-0.4,0-0.7c0-0.2,0-0.4,0-0.7c0-0.2,0-0.4,0-0.5L69.2,33.4z"/>
	<path fill-rule="evenodd" clip-rule="evenodd" fill="#FFFFFF" d="M74.1,36.5c0,0.1-0.1,0.3-0.1,0.4c-0.1,0.1-0.2,0.2-0.3,0.2
		c-0.1,0-0.2,0.1-0.3,0c-0.1,0-0.2-0.1-0.3-0.2C73,36.8,73,36.7,73,36.6c0-0.1,0-0.2,0-0.3c0-0.1,0-0.2,0-0.3c0-0.1,0-0.2,0-0.2
		c0-0.4,0-0.8,0-1.2c0-0.4,0-0.8,0-1.2c0-0.2,0-0.3,0-0.5c0-0.2,0-0.3,0-0.5c0-0.1,0.1-0.2,0.2-0.3c0.1-0.1,0.2-0.1,0.3-0.2
		c0.1,0,0.2,0,0.3,0c0.1,0,0.2,0.1,0.3,0.2c0.1,0.1,0.2,0.3,0.2,0.4c0,0.1,0,0.3,0,0.5c0,0.2,0,0.5,0,0.7c0,0.2,0,0.5,0,0.7
		c0,0.3,0,0.6,0,1C74.1,35.8,74.1,36.1,74.1,36.5L74.1,36.5z M72.8,30.8c0-0.2,0.1-0.4,0.3-0.5c0.1-0.1,0.3-0.2,0.5-0.2
		c0.2,0,0.3,0.1,0.4,0.2c0.1,0.1,0.2,0.3,0.2,0.5c0,0.2,0,0.4-0.2,0.5c-0.1,0.1-0.3,0.2-0.4,0.2c-0.2,0-0.3,0-0.5-0.1
		C73,31.3,72.9,31.1,72.8,30.8L72.8,30.8z"/>
	<path fill-rule="evenodd" clip-rule="evenodd" fill="#FFFFFF" d="M75.1,34.4c0-0.2,0.1-0.4,0.2-0.6c0.1-0.2,0.2-0.4,0.3-0.5
		c0.1-0.2,0.3-0.3,0.4-0.5c0.1-0.1,0.3-0.3,0.5-0.3c0.3-0.2,0.6-0.2,0.9-0.2c0.3,0,0.6,0.1,0.9,0.2c0.3,0.1,0.5,0.3,0.7,0.6
		c0.2,0.3,0.3,0.5,0.4,0.9c0,0.2,0.1,0.4,0.1,0.6c0,0.2,0,0.4-0.1,0.6c-0.1,0.3-0.2,0.6-0.4,0.9c-0.2,0.3-0.4,0.6-0.7,0.8
		c-0.3,0.2-0.6,0.4-0.9,0.4c-0.3,0.1-0.7,0-1-0.2c-0.2-0.1-0.3-0.2-0.4-0.3c-0.1-0.1-0.2-0.2-0.3-0.3c-0.1-0.1-0.2-0.3-0.3-0.5
		c-0.1-0.2-0.1-0.3-0.2-0.5c0-0.2-0.1-0.4,0-0.6C75,34.8,75,34.6,75.1,34.4L75.1,34.4z M76.3,34.6c0,0.1,0,0.2,0,0.3
		c0,0.1,0,0.2,0,0.3c0,0.2,0.1,0.3,0.1,0.4c0.1,0.1,0.1,0.2,0.3,0.3C76.7,36,76.8,36,77,36c0.1,0,0.3,0,0.4-0.1
		c0.2-0.1,0.4-0.3,0.5-0.5c0.1-0.2,0.2-0.5,0.3-0.7c0-0.3,0-0.5-0.1-0.7c-0.1-0.2-0.3-0.4-0.5-0.5c-0.2,0-0.3,0-0.5,0.1
		c-0.1,0.1-0.3,0.1-0.4,0.3c-0.1,0.1-0.2,0.2-0.3,0.4C76.4,34.3,76.3,34.4,76.3,34.6L76.3,34.6z"/>
	<path fill-rule="evenodd" clip-rule="evenodd" fill="#FFFFFF" d="M84.1,36.5c0,0.2-0.1,0.3-0.2,0.4c-0.1,0.1-0.2,0.2-0.3,0.2
		c-0.1,0-0.3,0-0.4,0c-0.1-0.1-0.2-0.2-0.3-0.3c-0.1-0.2-0.1-0.4-0.1-0.6c0-0.2,0-0.4,0-0.6c0-0.4,0-0.7,0-1.1c0-0.4,0-0.7,0-1.1
		c0,0,0,0,0,0c0,0,0,0,0,0c-0.2,0-0.3,0-0.5,0c-0.2,0.1-0.3,0.1-0.4,0.2c-0.1,0.1-0.2,0.2-0.3,0.4c-0.1,0.2-0.2,0.3-0.2,0.4v1.4
		c0,0.1,0,0.2,0,0.3c0,0.1,0,0.3,0,0.4c0,0.1-0.1,0.2-0.1,0.3c-0.1,0.1-0.2,0.2-0.3,0.2c-0.1,0-0.1,0-0.2,0c-0.1,0-0.1,0-0.2,0
		c-0.1,0-0.2-0.1-0.3-0.2c-0.1-0.1-0.1-0.2-0.1-0.3c0-0.1,0-0.2,0-0.3c0-0.1,0-0.2,0-0.2c0-0.2,0-0.4,0-0.7c0-0.3,0-0.6,0-0.9
		c0-0.3,0-0.6,0-0.9c0-0.3,0-0.5,0-0.7c0-0.1,0-0.3,0.1-0.4c0.1-0.1,0.2-0.2,0.3-0.2c0.1,0,0.2,0,0.4,0c0.1,0,0.2,0.1,0.3,0.3
		c0.3-0.2,0.6-0.3,0.9-0.4c0.3-0.1,0.6,0,0.9,0c0.3,0.1,0.5,0.2,0.7,0.5c0.2,0.2,0.3,0.5,0.3,0.9c0,0,0,0.1,0,0.1c0,0.1,0,0.2,0,0.3
		V36.5z"/>
	<path fill-rule="evenodd" clip-rule="evenodd" fill="#FFFFFF" d="M84.6,36.1c0-0.1-0.1-0.2-0.1-0.3c0-0.1,0-0.2,0.1-0.3
		c0-0.1,0.1-0.2,0.2-0.2c0.1,0,0.2-0.1,0.3-0.1c0.1,0,0.1,0,0.2,0.1c0.1,0,0.1,0.1,0.2,0.1c0,0,0.1,0.1,0.2,0.2
		c0,0.1,0.1,0.1,0.2,0.1c0.1,0.1,0.2,0.1,0.4,0.2c0.1,0,0.3,0.1,0.4,0.1c0.1,0,0.2,0,0.2-0.1c0.1,0,0.1-0.1,0.1-0.2
		c0-0.1,0-0.1,0-0.2c0-0.1,0-0.1-0.1-0.2c-0.1-0.1-0.3-0.2-0.4-0.2c-0.2,0-0.3-0.1-0.5-0.1c-0.2-0.1-0.4-0.2-0.6-0.3
		c-0.2-0.1-0.3-0.2-0.5-0.4c-0.1-0.2-0.2-0.4-0.2-0.6c0-0.2,0-0.4,0-0.6c0.1-0.2,0.2-0.4,0.3-0.6c0.1-0.2,0.3-0.3,0.5-0.4
		c0.1-0.1,0.3-0.1,0.5-0.2c0.2,0,0.3,0,0.5,0c0.2,0,0.3,0,0.5,0.1c0.2,0,0.3,0.1,0.5,0.2c0.2,0.1,0.3,0.2,0.4,0.3
		c0.1,0.1,0.1,0.3,0.1,0.4c0,0.1,0,0.3-0.1,0.4c-0.1,0.1-0.2,0.2-0.4,0.2c-0.1,0-0.2,0-0.3-0.1c-0.1,0-0.2-0.1-0.3-0.1
		c-0.1,0-0.3-0.1-0.4-0.1c-0.1,0-0.3,0-0.3,0c0,0-0.1,0-0.1,0.1c0,0-0.1,0.1-0.1,0.1c0,0.1,0,0.1,0,0.2c0,0.1,0,0.1,0.1,0.1
		c0.2,0.1,0.3,0.2,0.5,0.2c0.2,0,0.4,0.1,0.5,0.2c0.2,0.1,0.3,0.1,0.5,0.2c0.2,0.1,0.3,0.2,0.4,0.4c0.1,0.3,0.2,0.5,0.2,0.8
		c0,0.3-0.1,0.5-0.2,0.8c-0.1,0.2-0.3,0.4-0.5,0.6c-0.2,0.2-0.5,0.3-0.8,0.3c-0.2,0-0.4,0-0.6,0c-0.2,0-0.4-0.1-0.6-0.2
		c-0.2-0.1-0.4-0.2-0.5-0.3C84.9,36.4,84.8,36.3,84.6,36.1L84.6,36.1z"/>
</g>
<g>
</g>
<g>
</g>
<g>
</g>
<g>
</g>
<g>
</g>
<g>
</g>
<g>
</g>
<g>
</g>
<g>
</g>
<g>
</g>
<g>
</g>
<g>
</g>
<g>
</g>
<g>
</g>
<g>
</g>
</svg>
