<?xml version="1.0" encoding="utf-8"?>
<!-- Generator: Adobe Illustrator 18.0.0, SVG Export Plug-In . SVG Version: 6.00 Build 0)  -->
<!DOCTYPE svg PUBLIC "-//W3C//DTD SVG 1.1//EN" "http://www.w3.org/Graphics/SVG/1.1/DTD/svg11.dtd">
<svg version="1.1" id="Layer_1" xmlns="http://www.w3.org/2000/svg" xmlns:xlink="http://www.w3.org/1999/xlink" x="0px" y="0px"
	 viewBox="0 0 200 80" enable-background="new 0 0 200 80" xml:space="preserve">
<g>
	<path fill="#A1A1A1" d="M10.4,71.7c0,0.3-0.2,0.6-0.3,0.8c-0.2,0.2-0.4,0.4-0.7,0.5c-0.3,0.1-0.5,0.1-0.8,0
		c-0.3-0.1-0.5-0.3-0.7-0.6c-0.1-0.1-0.1-0.2-0.2-0.4c0-0.1-0.1-0.3-0.1-0.4v-5.8c-0.3,0-0.5-0.1-0.8-0.2c-0.2-0.2-0.4-0.3-0.5-0.6
		c-0.1-0.2-0.1-0.5-0.1-0.7c0-0.3,0.1-0.5,0.3-0.7c0.2-0.2,0.3-0.3,0.5-0.3c0.2-0.1,0.3-0.1,0.5-0.1c0-0.5,0-0.9,0-1.3
		s0-0.9,0.1-1.3c0.1-0.7,0.3-1.3,0.6-1.8s0.7-0.9,1.2-1.1c0.5-0.3,1-0.4,1.6-0.5c0.6,0,1.2,0,1.8,0.3c0.3,0.1,0.5,0.2,0.8,0.3
		c0.2,0.1,0.5,0.3,0.6,0.5c0.1,0.2,0.2,0.3,0.3,0.5c0.1,0.2,0.1,0.4,0,0.6c0,0.2-0.1,0.4-0.2,0.6c-0.1,0.2-0.3,0.3-0.5,0.4
		c-0.3,0.1-0.6,0.2-0.8,0.1c-0.3-0.1-0.5-0.2-0.8-0.3C12.1,60,12,60,11.8,59.9c-0.1-0.1-0.3-0.1-0.5-0.1c-0.2,0-0.3,0-0.4,0.1
		c-0.1,0.1-0.2,0.2-0.3,0.3c-0.1,0.1-0.2,0.3-0.2,0.4c-0.1,0.2-0.1,0.3-0.1,0.5c0,0.3,0,0.7,0,1s0,0.7,0,1c0.2,0,0.5,0,0.7,0
		c0.3,0,0.5,0,0.7,0s0.5,0,0.7,0s0.4,0,0.5,0.1c0.2,0.1,0.4,0.2,0.6,0.4c0.1,0.2,0.2,0.4,0.3,0.6c0,0.2,0,0.4-0.1,0.7
		c-0.1,0.2-0.2,0.4-0.4,0.6c-0.2,0.2-0.4,0.3-0.7,0.3C12.3,66,12.1,66,11.8,66s-0.6,0-0.8,0c-0.3,0-0.5,0-0.7,0L10.4,71.7L10.4,71.7
		z"/>
	<path fill="#A1A1A1" d="M19.5,70.4c0.2-0.1,0.3-0.2,0.6-0.3c0.2-0.1,0.4-0.3,0.6-0.4c-0.1-0.8-0.2-1.6-0.2-2.3c0-0.8,0-1.6,0-2.4
		c-0.7,0.1-1.2,0.4-1.8,0.9c-0.5,0.5-0.9,1-1.1,1.6c-0.1,0.3-0.2,0.5-0.2,0.8c-0.1,0.3-0.1,0.5-0.1,0.8c0,0.3,0.1,0.6,0.3,0.9
		c0.2,0.2,0.3,0.4,0.6,0.5c0.2,0.1,0.5,0.2,0.7,0.2C19,70.5,19.3,70.4,19.5,70.4L19.5,70.4L19.5,70.4z M24.3,71.3
		c0.1,0.4,0.1,0.8-0.1,1.1c-0.2,0.3-0.4,0.5-0.7,0.6c-0.3,0.1-0.6,0.1-0.9,0c-0.3-0.1-0.6-0.3-0.9-0.7c-0.4,0.3-0.8,0.5-1.2,0.6
		c-0.4,0.1-0.8,0.2-1.3,0.2c-0.8,0-1.4,0-2-0.3c-0.6-0.2-1.1-0.5-1.5-0.9c-0.4-0.4-0.7-0.9-0.9-1.5s-0.3-1.3-0.2-2.1
		c0-0.3,0.1-0.6,0.2-0.9c0.1-0.3,0.2-0.6,0.3-0.9c0.1-0.3,0.3-0.7,0.5-1c0.2-0.4,0.4-0.7,0.6-0.9c0.8-1,1.8-1.7,3-2.1
		c0.2-0.1,0.5-0.1,0.8-0.2c0.3-0.1,0.7-0.1,1.1-0.1s0.7,0.1,1,0.1c0.3,0.1,0.6,0.2,0.7,0.5c0.1,0.2,0.2,0.3,0.3,0.5
		c0.1,0.1,0.1,0.3,0.1,0.4c0,0.1,0,0.3,0,0.5c0,0.2,0,0.4,0,0.6c0,0.4,0,0.8,0,1.2s0,0.8,0,1.2c0,0.1,0,0.3,0,0.5s0,0.4,0,0.7
		c0,0.2,0,0.5,0.1,0.7c0,0.2,0,0.4,0.1,0.5L24.3,71.3L24.3,71.3z"/>
	<path fill="#A1A1A1" d="M31.1,69.6c0.4-0.2,0.7-0.3,1-0.3c0.3,0,0.6,0.1,0.8,0.3c0.2,0.2,0.3,0.5,0.4,0.8c0,0.3-0.1,0.7-0.3,1
		c-0.2,0.3-0.4,0.5-0.7,0.7c-0.3,0.2-0.6,0.4-0.9,0.5c-0.6,0.3-1.3,0.4-2,0.4c-0.7,0-1.3-0.2-1.8-0.5c-0.6-0.3-1.1-0.7-1.5-1.2
		c-0.4-0.5-0.7-1.1-0.8-1.8c-0.3-1.3-0.2-2.6,0.2-3.8c0.2-0.4,0.4-0.9,0.6-1.3c0.2-0.4,0.5-0.8,0.8-1.1c0.3-0.3,0.7-0.6,1.1-0.9
		c0.4-0.3,0.8-0.4,1.3-0.5c0.3-0.1,0.7-0.1,1.2,0c0.5,0.1,1,0.2,1.5,0.4c0.5,0.2,0.9,0.4,1.2,0.7c0.4,0.3,0.6,0.7,0.6,1.1
		c0,0.2,0,0.5-0.1,0.6c-0.1,0.2-0.2,0.4-0.4,0.5c-0.2,0.1-0.3,0.2-0.6,0.3c-0.2,0-0.4,0-0.7,0c-0.3-0.1-0.5-0.2-0.6-0.3
		c-0.2-0.1-0.4-0.3-0.6-0.5c-0.1,0-0.2-0.1-0.3-0.1c-0.1-0.1-0.2-0.1-0.3-0.1l-0.6,0.1c-0.1,0.1-0.2,0.1-0.3,0.2
		c-0.1,0-0.2,0.1-0.3,0.1c-0.5,0.5-0.9,1.1-1.1,1.7s-0.3,1.3-0.2,2c0.1,0.5,0.2,0.8,0.4,1.1c0.2,0.3,0.5,0.5,0.7,0.6
		c0.3,0.1,0.6,0.1,0.9,0c0.3-0.1,0.7-0.3,1-0.6L31.1,69.6L31.1,69.6z"/>
	<path fill="#A1A1A1" d="M36.5,65c-0.3-0.1-0.6-0.2-0.8-0.4c-0.2-0.2-0.4-0.4-0.4-0.6c-0.1-0.2-0.1-0.5,0-0.7
		c0.1-0.3,0.3-0.5,0.5-0.7c0.2-0.2,0.5-0.3,0.8-0.3c0.3,0,0.6,0,0.9,0c0-0.1,0-0.3,0-0.7c0-0.3,0-0.7,0-1.1s0-0.8,0.1-1.2
		c0-0.4,0.1-0.6,0.2-0.8c0.3-0.4,0.7-0.6,1.1-0.6c0.4,0,0.8,0.2,1.1,0.6c0.1,0.1,0.1,0.2,0.2,0.3c0.1,0.1,0.1,0.2,0.1,0.3
		c0,0.5,0,1.1,0,1.6c0,0.5,0,1.1,0,1.6H42c0.3,0,0.5,0.1,0.7,0.3c0.2,0.2,0.3,0.4,0.4,0.6c0.1,0.2,0.1,0.5,0.1,0.7
		c0,0.3-0.1,0.5-0.3,0.6c-0.3,0.3-0.7,0.4-1.2,0.4s-0.9,0-1.4,0c0,0.8,0,1.6,0,2.4s0,1.6,0,2.4c0,0.3,0,0.7,0,1.1
		c0,0.4,0,0.7-0.1,1.1c-0.1,0.3-0.2,0.5-0.4,0.6c-0.2,0.2-0.4,0.3-0.6,0.3s-0.4,0-0.7,0c-0.2-0.1-0.5-0.2-0.7-0.4
		c-0.1-0.1-0.2-0.3-0.2-0.5c0-0.3-0.1-0.5-0.1-0.8c0-0.3,0-0.7,0-1s0-0.7,0-1.2c0-0.5,0-1,0-1.5c0-0.5,0-1,0-1.4c0-0.5,0-0.8,0-1.1
		L36.5,65L36.5,65z"/>
	<path fill="#A1A1A1" d="M45.7,67.5c0,0.2-0.1,0.5-0.1,0.7c0,0.2,0,0.5,0,0.7c0,0.3,0.1,0.6,0.3,0.9c0.1,0.3,0.3,0.5,0.6,0.7
		c0.2,0.2,0.5,0.3,0.8,0.3s0.6-0.1,0.9-0.3c0.4-0.3,0.8-0.6,1.1-1.2c0.3-0.5,0.5-1.1,0.6-1.6c0.1-0.6,0-1.1-0.2-1.6
		c-0.2-0.5-0.6-0.9-1.1-1.1c-0.4,0-0.7,0.1-1,0.2s-0.6,0.3-0.8,0.6c-0.2,0.2-0.4,0.5-0.6,0.8C46,66.9,45.8,67.2,45.7,67.5L45.7,67.5
		L45.7,67.5z M43.1,67.1c0.1-0.4,0.3-0.9,0.4-1.3c0.2-0.4,0.4-0.8,0.7-1.2c0.3-0.4,0.6-0.7,0.9-1c0.3-0.3,0.7-0.6,1.1-0.8
		c0.7-0.3,1.4-0.5,2-0.5c0.7,0,1.3,0.1,1.9,0.4c0.6,0.3,1.1,0.7,1.5,1.2c0.4,0.6,0.7,1.2,0.8,2c0.1,0.5,0.1,1,0.1,1.4
		c0,0.5,0,0.9-0.1,1.4c-0.1,0.7-0.4,1.4-0.9,2.1c-0.4,0.7-1,1.3-1.6,1.7c-0.6,0.5-1.3,0.8-2,0.9c-0.7,0.1-1.5,0-2.2-0.4
		c-0.3-0.2-0.6-0.3-0.9-0.6c-0.3-0.2-0.5-0.5-0.7-0.8c-0.3-0.3-0.4-0.7-0.6-1c-0.1-0.3-0.3-0.7-0.3-1.1c-0.1-0.4-0.1-0.8-0.1-1.2
		s0.1-0.8,0.2-1.2L43.1,67.1L43.1,67.1z"/>
	<path fill="#A1A1A1" d="M54.6,65.6L54.6,65.6c0-0.1,0-0.3,0-0.6c-0.2-0.1-0.4-0.3-0.6-0.5c-0.1-0.2-0.2-0.4-0.2-0.7
		c0-0.2,0-0.5,0.1-0.7c0.1-0.2,0.3-0.4,0.5-0.5c0.3-0.2,0.7-0.2,1.1-0.1c0.4,0.1,0.8,0.3,1,0.5c0.4-0.3,0.8-0.5,1.1-0.7
		c0.4-0.2,0.8-0.3,1.2-0.4c0.4-0.1,0.8-0.1,1.3,0c0.4,0.1,0.8,0.3,1.3,0.6c0.2,0.1,0.4,0.3,0.6,0.5c0.2,0.2,0.3,0.4,0.3,0.7
		c0.1,0.4,0,0.7-0.1,1c-0.1,0.3-0.3,0.5-0.6,0.6c-0.2,0.1-0.5,0.2-0.8,0.1c-0.3,0-0.6-0.2-0.8-0.5c-0.1-0.1-0.2-0.1-0.2-0.1
		s-0.1-0.1-0.2-0.1c-0.2,0-0.5,0-0.7,0c-0.2,0.1-0.5,0.2-0.7,0.4c-0.2,0.2-0.4,0.3-0.6,0.5c-0.2,0.2-0.3,0.3-0.5,0.5v5.6
		c0,0.2,0,0.4-0.1,0.6c-0.1,0.3-0.3,0.6-0.6,0.7c-0.3,0.1-0.6,0.2-0.9,0.1c-0.3-0.1-0.5-0.2-0.8-0.4c-0.2-0.2-0.3-0.5-0.3-0.9
		L54.6,65.6L54.6,65.6z"/>
	<path fill="#A1A1A1" d="M71.2,62.6c0.2-0.3,0.4-0.5,0.7-0.6c0.3-0.1,0.5-0.1,0.8-0.1c0.3,0.1,0.5,0.2,0.7,0.4
		c0.2,0.2,0.3,0.5,0.4,0.8c0,0.3,0,0.6-0.1,1.1c-0.1,0.5-0.3,0.9-0.5,1.4c-0.2,0.5-0.4,0.9-0.6,1.4c-0.2,0.4-0.3,0.8-0.5,1
		c-0.5,1.1-1,2.2-1.6,3.2c-0.6,1.1-1.2,2.1-1.8,3.2c-0.1,0.2-0.2,0.4-0.3,0.6c-0.1,0.2-0.2,0.5-0.4,0.7c-0.1,0.3-0.3,0.5-0.4,0.7
		c-0.1,0.2-0.3,0.4-0.4,0.5c-0.3,0.3-0.5,0.4-0.8,0.4c-0.3,0-0.5,0-0.8-0.1c-0.2-0.1-0.4-0.3-0.6-0.6c-0.1-0.3-0.2-0.6-0.2-0.9
		c0-0.1,0.1-0.3,0.2-0.5s0.2-0.4,0.4-0.7c0.1-0.2,0.3-0.4,0.4-0.6c0.1-0.2,0.2-0.4,0.3-0.5c0.3-0.5,0.6-1,0.9-1.5
		c0.3-0.5,0.6-1,0.8-1.5c-1-0.8-1.8-1.7-2.5-2.7s-1.3-2.1-1.6-3.3c-0.1-0.2-0.2-0.4-0.2-0.6c-0.1-0.2-0.1-0.4-0.1-0.6
		c0-0.3,0.1-0.5,0.2-0.7c0.1-0.2,0.3-0.4,0.4-0.5c0.2-0.1,0.4-0.2,0.6-0.2s0.5,0,0.7,0.2c0.2,0.1,0.3,0.2,0.4,0.4
		c0.1,0.2,0.2,0.4,0.3,0.6c0.1,0.2,0.1,0.4,0.2,0.6c0,0.2,0.1,0.4,0.2,0.6c0.6,1.4,1.5,2.7,2.7,3.7c0.4-0.9,0.8-1.8,1.1-2.7
		c0.3-0.9,0.6-1.8,0.9-2.7L71.2,62.6L71.2,62.6z"/>
	<path fill="#A1A1A1" d="M88.6,67.5c0,0.2-0.1,0.5-0.1,0.7c0,0.2,0,0.5,0,0.7c0,0.3,0.1,0.6,0.3,0.9c0.1,0.3,0.3,0.5,0.6,0.7
		c0.2,0.2,0.5,0.3,0.8,0.3c0.3,0,0.6-0.1,0.9-0.3c0.4-0.3,0.8-0.6,1.1-1.2c0.3-0.5,0.5-1.1,0.6-1.6c0.1-0.6,0-1.1-0.2-1.6
		c-0.2-0.5-0.6-0.9-1.1-1.1c-0.4,0-0.7,0.1-1,0.2s-0.6,0.3-0.8,0.6c-0.2,0.2-0.4,0.5-0.6,0.8C88.8,66.9,88.7,67.2,88.6,67.5
		L88.6,67.5L88.6,67.5z M86,67.1c0.1-0.4,0.3-0.9,0.4-1.3c0.2-0.4,0.4-0.8,0.7-1.2c0.3-0.4,0.6-0.7,0.9-1c0.3-0.3,0.7-0.6,1.1-0.8
		c0.7-0.3,1.4-0.5,2-0.5c0.7,0,1.3,0.1,1.9,0.4c0.6,0.3,1.1,0.7,1.5,1.2c0.4,0.6,0.7,1.2,0.8,2c0.1,0.5,0.1,1,0.1,1.4
		c0,0.5,0,0.9-0.1,1.4c-0.1,0.7-0.4,1.4-0.9,2.1c-0.4,0.7-1,1.3-1.6,1.7c-0.6,0.5-1.3,0.8-2,0.9c-0.7,0.1-1.5,0-2.2-0.4
		c-0.3-0.2-0.6-0.3-0.9-0.6c-0.3-0.2-0.5-0.5-0.7-0.8c-0.3-0.3-0.4-0.7-0.6-1c-0.1-0.3-0.3-0.7-0.3-1.1C86,69.1,86,68.7,86,68.3
		s0.1-0.8,0.2-1.2L86,67.1L86,67.1z"/>
	<path fill="#A1A1A1" d="M100.9,71.7c0,0.3-0.2,0.6-0.3,0.8c-0.2,0.2-0.4,0.4-0.7,0.5c-0.3,0.1-0.5,0.1-0.8,0
		c-0.3-0.1-0.5-0.3-0.7-0.6c-0.1-0.1-0.1-0.2-0.2-0.4c0-0.1-0.1-0.3-0.1-0.4v-5.8c-0.3,0-0.5-0.1-0.8-0.2c-0.2-0.2-0.4-0.3-0.5-0.6
		c-0.1-0.2-0.1-0.5-0.1-0.7c0-0.3,0.1-0.5,0.3-0.7c0.2-0.2,0.3-0.3,0.5-0.3c0.2-0.1,0.3-0.1,0.5-0.1c0-0.5,0-0.9,0-1.3
		s0-0.9,0.1-1.3c0.1-0.7,0.3-1.3,0.6-1.8c0.3-0.5,0.7-0.9,1.2-1.1c0.5-0.3,1-0.4,1.6-0.5c0.6,0,1.2,0,1.8,0.3
		c0.3,0.1,0.5,0.2,0.8,0.3c0.2,0.1,0.5,0.3,0.6,0.5c0.1,0.2,0.2,0.3,0.3,0.5c0.1,0.2,0.1,0.4,0,0.6c0,0.2-0.1,0.4-0.2,0.6
		c-0.1,0.2-0.3,0.3-0.5,0.4c-0.3,0.1-0.6,0.2-0.8,0.1c-0.3-0.1-0.5-0.2-0.8-0.3c-0.2-0.1-0.3-0.1-0.5-0.2c-0.1-0.1-0.3-0.1-0.5-0.1
		c-0.2,0-0.3,0-0.4,0.1c-0.1,0.1-0.2,0.2-0.3,0.3c-0.1,0.1-0.2,0.3-0.2,0.4c-0.1,0.2-0.1,0.3-0.1,0.5c0,0.3,0,0.7,0,1s0,0.7,0,1
		c0.2,0,0.5,0,0.7,0c0.3,0,0.5,0,0.7,0s0.5,0,0.7,0c0.2,0,0.4,0,0.5,0.1c0.2,0.1,0.4,0.2,0.6,0.4c0.1,0.2,0.2,0.4,0.3,0.6
		c0,0.2,0,0.4-0.1,0.7c-0.1,0.2-0.2,0.4-0.4,0.6c-0.2,0.2-0.4,0.3-0.7,0.3c-0.3,0.1-0.5,0.1-0.8,0.1s-0.6,0-0.8,0
		c-0.3,0-0.5,0-0.7,0L100.9,71.7L100.9,71.7z"/>
	<path fill="#A1A1A1" d="M119.4,65.6c-0.3,0.2-0.6,0.4-0.7,0.7c-0.2,0.3-0.3,0.7-0.4,1.2c0.4-0.1,0.8-0.2,1.3-0.4
		c0.5-0.1,0.9-0.3,1.4-0.4c0.4-0.1,0.8-0.3,1.1-0.5c0.3-0.2,0.4-0.4,0.4-0.6c0-0.1,0-0.2-0.1-0.3c0-0.1-0.1-0.2-0.2-0.2
		c-0.4-0.1-0.8-0.2-1.3-0.1c-0.4,0.1-0.8,0.2-1.1,0.4L119.4,65.6L119.4,65.6z M124,69.4c0.3-0.1,0.7-0.1,0.9,0
		c0.3,0.1,0.5,0.2,0.6,0.4s0.2,0.4,0.2,0.7c0,0.3-0.1,0.6-0.4,0.9c-0.2,0.3-0.5,0.5-0.8,0.6c-0.3,0.2-0.6,0.3-0.9,0.4
		c-0.7,0.3-1.4,0.5-2,0.6c-0.6,0.1-1.2,0.1-1.8,0c-0.6-0.1-1.1-0.3-1.6-0.6c-0.5-0.3-0.9-0.8-1.4-1.4c-0.3-0.4-0.5-0.9-0.6-1.4
		c-0.1-0.5-0.2-1-0.2-1.6c0-0.5,0-1,0.1-1.6c0.1-0.5,0.2-1,0.4-1.4c0.3-0.5,0.6-1,1.2-1.4c0.5-0.4,1.1-0.8,1.8-1
		c0.7-0.3,1.3-0.4,2-0.4s1.3,0.1,1.8,0.3c0.4,0.2,0.8,0.5,1.1,0.9s0.5,0.8,0.6,1.3c0.1,0.5,0.1,0.9,0,1.4c-0.1,0.5-0.3,0.9-0.7,1.3
		c-0.4,0.4-0.8,0.7-1.2,0.9c-0.4,0.2-0.9,0.4-1.4,0.6c-0.5,0.2-0.9,0.3-1.4,0.4c-0.5,0.1-1,0.3-1.4,0.4c0.3,0.4,0.7,0.6,1.1,0.7
		c0.4,0.1,0.8,0.1,1.2,0.1c0.4-0.1,0.9-0.2,1.3-0.4c0.4-0.2,0.9-0.4,1.2-0.6L124,69.4L124,69.4z"/>
	<path fill="#A1A1A1" d="M132.9,66v-0.3c-0.1-0.3-0.3-0.6-0.6-0.7s-0.6-0.2-0.9-0.3c-0.2,0.1-0.3,0.1-0.5,0.2
		c-0.1,0.1-0.2,0.2-0.3,0.2c-0.1,0.1-0.2,0.2-0.2,0.3c-0.1,0.1-0.2,0.2-0.3,0.3v5.8c0,0.5-0.1,0.8-0.4,1.1c-0.3,0.3-0.6,0.4-0.9,0.4
		c-0.3,0-0.6,0-0.9-0.2c-0.3-0.2-0.4-0.5-0.4-1c0-1.1,0-2.4,0-3.8c0-1.4,0-3.1,0-4.8c0-0.3,0.1-0.6,0.3-0.8c0.2-0.2,0.4-0.3,0.7-0.4
		c0.3-0.1,0.5-0.1,0.8,0c0.3,0.1,0.5,0.2,0.7,0.5c0.8-0.4,1.6-0.5,2.5-0.4c0.8,0.2,1.5,0.5,2.2,1.2c0.3-0.3,0.6-0.6,0.9-0.8
		c0.3-0.2,0.7-0.4,1.1-0.5c0.5-0.1,0.9-0.1,1.4,0c0.5,0.1,0.9,0.3,1.3,0.5c0.4,0.3,0.7,0.6,1,0.9c0.3,0.4,0.5,0.8,0.7,1.2
		c0.1,0.3,0.1,0.6,0.1,0.8v6c0,0.2,0,0.3-0.1,0.5c-0.1,0.4-0.3,0.6-0.6,0.8s-0.6,0.2-0.9,0.2c-0.3,0-0.6-0.2-0.8-0.4
		s-0.3-0.6-0.3-0.9v-5.9c-0.1-0.4-0.3-0.6-0.6-0.8c-0.2-0.2-0.5-0.2-0.8-0.2s-0.5,0.1-0.8,0.3c-0.3,0.2-0.4,0.4-0.6,0.7v5.8
		c0,0.4-0.1,0.7-0.4,1s-0.5,0.4-0.9,0.5c-0.3,0.1-0.6,0-0.9-0.1c-0.3-0.1-0.4-0.4-0.5-0.8L132.9,66L132.9,66z"/>
	<path fill="#A1A1A1" d="M145.3,67.5c0,0.2-0.1,0.5-0.1,0.7c0,0.2,0,0.5,0,0.7c0,0.3,0.1,0.6,0.3,0.9c0.1,0.3,0.3,0.5,0.6,0.7
		c0.2,0.2,0.5,0.3,0.8,0.3s0.6-0.1,0.9-0.3c0.4-0.3,0.8-0.6,1.1-1.2c0.3-0.5,0.5-1.1,0.6-1.6c0.1-0.6,0-1.1-0.2-1.6
		c-0.2-0.5-0.6-0.9-1.1-1.1c-0.4,0-0.7,0.1-1,0.2s-0.6,0.3-0.8,0.6c-0.2,0.2-0.4,0.5-0.6,0.8C145.5,66.9,145.4,67.2,145.3,67.5
		L145.3,67.5L145.3,67.5z M142.6,67.1c0.1-0.4,0.3-0.9,0.4-1.3c0.2-0.4,0.4-0.8,0.7-1.2c0.3-0.4,0.6-0.7,0.9-1
		c0.3-0.3,0.7-0.6,1.1-0.8c0.7-0.3,1.4-0.5,2-0.5c0.7,0,1.3,0.1,1.9,0.4c0.6,0.3,1.1,0.7,1.5,1.2c0.4,0.6,0.7,1.2,0.8,2
		c0.1,0.5,0.1,1,0.1,1.4c0,0.5,0,0.9-0.1,1.4c-0.1,0.7-0.4,1.4-0.9,2.1c-0.4,0.7-1,1.3-1.6,1.7c-0.6,0.5-1.3,0.8-2,0.9
		c-0.7,0.1-1.5,0-2.2-0.4c-0.3-0.2-0.6-0.3-0.9-0.6c-0.3-0.2-0.5-0.5-0.7-0.8c-0.3-0.3-0.4-0.7-0.6-1c-0.1-0.3-0.3-0.7-0.3-1.1
		c-0.1-0.4-0.1-0.8-0.1-1.2s0.1-0.8,0.2-1.2L142.6,67.1L142.6,67.1z"/>
	<path fill="#A1A1A1" d="M154.2,65c-0.3-0.1-0.6-0.2-0.8-0.4S153,64.2,153,64c-0.1-0.2-0.1-0.5,0-0.7c0.1-0.3,0.3-0.5,0.5-0.7
		c0.2-0.2,0.5-0.3,0.8-0.3s0.6,0,0.9,0c0-0.1,0-0.3,0-0.7c0-0.3,0-0.7,0-1.1s0-0.8,0.1-1.2c0-0.4,0.1-0.6,0.2-0.8
		c0.3-0.4,0.7-0.6,1.1-0.6c0.4,0,0.8,0.2,1.1,0.6c0.1,0.1,0.1,0.2,0.2,0.3c0.1,0.1,0.1,0.2,0.1,0.3c0,0.5,0,1.1,0,1.6
		c0,0.5,0,1.1,0,1.6h1.7c0.3,0,0.5,0.1,0.7,0.3c0.2,0.2,0.3,0.4,0.4,0.6c0.1,0.2,0.1,0.5,0.1,0.7c0,0.3-0.1,0.5-0.3,0.6
		c-0.3,0.3-0.7,0.4-1.2,0.4c-0.5,0-0.9,0-1.4,0c0,0.8,0,1.6,0,2.4s0,1.6,0,2.4c0,0.3,0,0.7,0,1.1c0,0.4,0,0.7-0.1,1.1
		c-0.1,0.3-0.2,0.5-0.4,0.6c-0.2,0.2-0.4,0.3-0.6,0.3c-0.2,0-0.4,0-0.7,0c-0.2-0.1-0.5-0.2-0.7-0.4c-0.1-0.1-0.2-0.3-0.2-0.5
		c0-0.3-0.1-0.5-0.1-0.8c0-0.3,0-0.7,0-1s0-0.7,0-1.2c0-0.5,0-1,0-1.5c0-0.5,0-1,0-1.4c0-0.5,0-0.8,0-1.1L154.2,65L154.2,65z"/>
	<path fill="#A1A1A1" d="M162.3,59.1c0.1-0.5,0.3-0.9,0.6-1.2c0.3-0.3,0.6-0.4,1-0.4c0.3,0,0.7,0.1,1,0.4s0.5,0.6,0.5,1.1
		c0,0.5-0.1,0.9-0.4,1.2c-0.3,0.3-0.6,0.4-1,0.5c-0.4,0-0.7-0.1-1-0.3c-0.3-0.2-0.5-0.6-0.6-1.1L162.3,59.1L162.3,59.1z M165.2,71.7
		c0,0.3-0.1,0.6-0.3,0.8s-0.4,0.4-0.6,0.5c-0.2,0.1-0.5,0.1-0.7,0.1c-0.3-0.1-0.5-0.2-0.7-0.5c-0.1-0.1-0.2-0.3-0.3-0.5
		c0-0.2-0.1-0.4-0.1-0.6c0-0.2,0-0.4,0-0.6c0-0.2,0-0.4,0-0.5c0-0.9,0-1.7,0-2.6s0-1.7,0-2.6c0-0.3,0-0.7-0.1-1.1
		c0-0.4,0-0.7,0.1-1.1c0.1-0.3,0.2-0.5,0.4-0.7c0.2-0.2,0.4-0.3,0.6-0.4c0.2-0.1,0.5-0.1,0.7,0c0.3,0.1,0.5,0.2,0.6,0.5
		c0.2,0.3,0.3,0.6,0.3,0.9c0,0.3,0,0.6,0,1c0,0.5,0,1,0,1.5c0,0.5,0,1,0,1.5c0,0.7,0,1.4,0,2.1c0,0.7,0,1.4,0,2.1v0.2H165.2z"/>
	<path fill="#A1A1A1" d="M169.9,67.5c0,0.2-0.1,0.5-0.1,0.7c0,0.2,0,0.5,0,0.7c0,0.3,0.1,0.6,0.3,0.9c0.1,0.3,0.3,0.5,0.6,0.7
		c0.2,0.2,0.5,0.3,0.8,0.3c0.3,0,0.6-0.1,0.9-0.3c0.4-0.3,0.8-0.6,1.1-1.2c0.3-0.5,0.5-1.1,0.6-1.6c0.1-0.6,0-1.1-0.2-1.6
		c-0.2-0.5-0.6-0.9-1.1-1.1c-0.4,0-0.7,0.1-1,0.2c-0.3,0.1-0.6,0.3-0.8,0.6c-0.2,0.2-0.4,0.5-0.6,0.8
		C170.2,66.9,170,67.2,169.9,67.5L169.9,67.5L169.9,67.5z M167.3,67.1c0.1-0.4,0.3-0.9,0.4-1.3c0.2-0.4,0.4-0.8,0.7-1.2
		c0.3-0.4,0.6-0.7,0.9-1c0.3-0.3,0.7-0.6,1.1-0.8c0.7-0.3,1.4-0.5,2-0.5c0.7,0,1.3,0.1,1.9,0.4c0.6,0.3,1.1,0.7,1.5,1.2
		c0.4,0.6,0.7,1.2,0.8,2c0.1,0.5,0.1,1,0.1,1.4c0,0.5,0,0.9-0.1,1.4c-0.1,0.7-0.4,1.4-0.9,2.1c-0.4,0.7-1,1.3-1.6,1.7
		c-0.6,0.5-1.3,0.8-2,0.9c-0.7,0.1-1.5,0-2.2-0.4c-0.3-0.2-0.6-0.3-0.9-0.6c-0.3-0.2-0.5-0.5-0.7-0.8c-0.3-0.3-0.4-0.7-0.6-1
		c-0.1-0.3-0.3-0.7-0.3-1.1c-0.1-0.4-0.1-0.8-0.1-1.2s0.1-0.8,0.2-1.2L167.3,67.1L167.3,67.1z"/>
	<path fill="#A1A1A1" d="M187.3,71.7c0,0.4-0.2,0.7-0.4,0.9s-0.5,0.4-0.8,0.4c-0.3,0.1-0.6,0-0.8-0.1c-0.3-0.1-0.5-0.4-0.6-0.8
		c-0.1-0.4-0.2-0.8-0.2-1.3c0-0.4,0-0.9,0-1.2c0-0.8,0-1.6,0-2.4s0-1.6-0.1-2.4v-0.1c0,0,0-0.1-0.1-0.1c-0.3-0.1-0.7-0.1-1.1,0.1
		c-0.4,0.1-0.7,0.3-1,0.5c-0.2,0.2-0.5,0.5-0.7,0.8s-0.3,0.7-0.3,1v3c0,0.2,0,0.5,0,0.8c0,0.3,0,0.6,0,0.8c0,0.3-0.1,0.5-0.3,0.7
		c-0.1,0.2-0.3,0.4-0.6,0.5c-0.2,0.1-0.3,0.1-0.5,0.1c-0.1,0-0.3,0-0.5-0.1c-0.3-0.1-0.5-0.2-0.6-0.5c-0.1-0.2-0.2-0.4-0.3-0.7
		c0-0.2-0.1-0.5,0-0.7c0-0.2,0-0.4,0-0.5c0-0.3,0-0.8,0-1.5c0-0.6,0-1.3,0-2s0-1.4,0-2c0-0.6,0-1.1,0-1.5c0-0.3,0.1-0.6,0.3-0.8
		c0.2-0.2,0.4-0.3,0.7-0.4s0.5,0,0.8,0c0.3,0.1,0.5,0.3,0.7,0.6c0.6-0.4,1.2-0.6,1.9-0.8c0.7-0.1,1.4-0.1,2,0.1
		c0.6,0.2,1.1,0.5,1.6,1c0.4,0.5,0.6,1.2,0.7,2c0,0,0,0.1,0,0.3c0,0.1,0,0.3,0,0.6L187.3,71.7L187.3,71.7z"/>
	<path fill="#A1A1A1" d="M188.5,70.8c-0.1-0.3-0.1-0.5-0.1-0.7s0.1-0.5,0.2-0.7s0.3-0.3,0.5-0.5c0.2-0.1,0.5-0.1,0.7-0.1
		s0.3,0.1,0.4,0.1c0.1,0.1,0.3,0.2,0.4,0.3c0.1,0.1,0.2,0.2,0.3,0.3c0.1,0.1,0.2,0.2,0.3,0.3c0.3,0.2,0.5,0.3,0.8,0.4
		c0.3,0.1,0.6,0.2,0.9,0.2c0.2,0,0.4,0,0.5-0.2c0.1-0.1,0.2-0.2,0.3-0.4c0-0.1,0-0.3,0-0.5s-0.1-0.3-0.2-0.4
		c-0.3-0.3-0.6-0.4-0.9-0.5c-0.4-0.1-0.7-0.2-1-0.3c-0.4-0.1-0.9-0.3-1.3-0.6c-0.4-0.2-0.8-0.5-1-0.9c-0.3-0.4-0.4-0.9-0.5-1.3
		c0-0.5,0-0.9,0.1-1.4c0.1-0.4,0.3-0.9,0.6-1.2c0.3-0.4,0.6-0.7,1.1-0.9c0.3-0.2,0.6-0.3,1-0.3c0.4-0.1,0.7-0.1,1.1,0
		c0.4,0,0.7,0.1,1.1,0.2s0.7,0.2,1,0.4c0.3,0.2,0.6,0.4,0.8,0.7c0.2,0.3,0.3,0.6,0.3,0.9c0,0.3-0.1,0.6-0.3,0.8
		c-0.2,0.2-0.5,0.3-0.9,0.3c-0.2,0-0.4,0-0.6-0.1c-0.2-0.1-0.4-0.2-0.6-0.2c-0.3-0.1-0.6-0.2-0.9-0.2c-0.3,0-0.6,0-0.7,0.1
		c-0.1,0-0.1,0.1-0.2,0.1c-0.1,0.1-0.1,0.2-0.2,0.3c0,0.1,0,0.2,0,0.4c0,0.1,0.1,0.2,0.2,0.3c0.3,0.2,0.7,0.3,1.1,0.4
		c0.4,0.1,0.8,0.2,1.2,0.4c0.4,0.1,0.7,0.3,1.1,0.5c0.3,0.2,0.6,0.5,0.8,0.9c0.3,0.6,0.5,1.1,0.5,1.7s-0.1,1.2-0.4,1.7
		c-0.3,0.5-0.6,1-1.1,1.4c-0.5,0.4-1,0.6-1.7,0.7c-0.5,0-0.9,0-1.3-0.1c-0.4-0.1-0.9-0.3-1.3-0.5c-0.4-0.2-0.8-0.5-1.1-0.8
		c-0.3-0.3-0.7-0.6-0.9-0.9L188.5,70.8L188.5,70.8z"/>
	<path fill="#FF9900" d="M6,6.8c0.2-1.6,0.7-2.7,1.6-3.4c0.9-0.7,1.9-1.1,2.9-1.1s1.9,0.4,2.8,1.2s1.3,1.8,1.4,3.2
		c0.1,1.4-0.3,2.5-1.1,3.3c-0.8,0.8-1.8,1.2-2.8,1.3c-1,0.1-2-0.2-3-0.9C6.9,9.7,6.3,8.7,6.1,7.2L6,6.8L6,6.8z M14.4,43.1
		c-0.1,0.9-0.4,1.6-0.9,2.2c-0.5,0.6-1.1,1.1-1.7,1.4c-0.6,0.3-1.4,0.4-2.1,0.2c-0.8-0.2-1.4-0.6-2-1.4c-0.3-0.4-0.6-0.9-0.7-1.4
		S6.7,43,6.6,42.5c0-0.6,0-1.1,0-1.7c0-0.6,0-1.1,0-1.5c0-2.5,0-4.9,0-7.5c0-2.4,0-4.9,0-7.5c0-1-0.1-2-0.2-3.1
		c-0.1-1-0.1-2.1,0.2-3.1c0.2-0.8,0.6-1.4,1.1-2c0.5-0.5,1.1-0.9,1.8-1.1c0.6-0.2,1.3-0.2,2-0.1c0.7,0.2,1.3,0.6,1.8,1.3
		c0.7,0.8,1,1.7,1,2.5s0,1.8,0,3c0,1.4,0,2.9,0,4.3s0,2.8,0.1,4.2c0,2,0.1,4.1,0.1,6.1s0,4.1,0,6.1v0.5H14.4z"/>
	<path fill="#CCCC33" d="M46.4,43.2c-0.1,1.1-0.5,1.9-1.2,2.6s-1.4,1.1-2.2,1.3c-0.8,0.2-1.6,0.1-2.4-0.3c-0.8-0.4-1.3-1.1-1.6-2.2
		c-0.4-1.2-0.5-2.4-0.4-3.7c0.1-1.3,0.1-2.5,0.1-3.6c0-2.3,0-4.5,0-6.9s-0.1-4.5-0.3-6.9c0-0.1-0.1-0.2-0.1-0.2
		c0-0.1-0.1-0.2-0.3-0.3c-1-0.3-2-0.2-3.1,0.2c-1.1,0.4-2,0.9-2.8,1.5c-0.7,0.5-1.3,1.3-2,2.2c-0.6,0.9-1,1.9-1,2.8v8.8
		c0,0.7,0,1.4,0.1,2.2c0,0.8,0,1.6-0.1,2.3c-0.1,0.8-0.4,1.5-0.7,2.1c-0.4,0.6-1,1.1-1.8,1.4c-0.5,0.2-0.9,0.2-1.3,0.2
		s-0.8-0.2-1.3-0.3c-0.8-0.3-1.3-0.7-1.7-1.3c-0.3-0.6-0.6-1.3-0.7-2c-0.1-0.7-0.2-1.4-0.2-2c0-0.6,0-1.2,0-1.5c0-1,0-2.4,0-4.2
		c0-1.8,0-3.8,0-5.8s0-4,0-5.8s0-3.2,0-4.2c0-0.9,0.3-1.7,0.8-2.3c0.5-0.6,1.2-1,1.9-1.2c0.7-0.2,1.5-0.1,2.3,0.1
		c0.8,0.3,1.5,0.8,2.1,1.7c1.7-1.1,3.5-1.8,5.6-2.2c2-0.4,3.9-0.3,5.7,0.2c1.8,0.5,3.3,1.5,4.5,2.8c1.2,1.4,1.8,3.3,1.9,5.8
		c0,0.1,0,0.3,0.1,0.8c0,0.4,0.1,1,0.1,1.8L46.4,43.2L46.4,43.2z"/>
	<path fill="#99CCFF" d="M61.1,40.9c0.5,0.4,0.8,1,1.2,1.6c0.3,0.6,0.5,1.3,0.5,2c0,0.6-0.1,1.3-0.4,1.8c-0.3,0.6-0.9,1-1.7,1.3
		c-0.6,0.2-1.3,0.3-2.1,0.1c-0.8-0.1-1.5-0.4-2.2-0.8c-0.7-0.4-1.4-0.8-2-1.4c-0.6-0.5-1-1.1-1.2-1.7c-0.1-0.2-0.1-0.5-0.2-0.7
		c0-0.3-0.1-0.5-0.1-0.7V7c0-1,0.4-1.8,1.1-2.5c0.7-0.7,1.5-1.1,2.4-1.2c0.4,0,0.9,0,1.4,0.2c0.5,0.2,0.9,0.4,1.4,0.7
		c0.4,0.3,0.8,0.7,1,1.1c0.3,0.4,0.4,0.9,0.4,1.3c0,1.1,0,2.5,0,4.4c0,1.8,0,3.8,0,5.9s0,4.4,0,6.8c0,2.3,0,4.5,0,6.7s0,4,0,5.8
		c0,1.7,0,3.1-0.1,4.2L61.1,40.9L61.1,40.9z"/>
	<path fill="#663399" d="M94.2,39.9c0.4,0.5,0.6,1.2,0.7,1.9c0.1,0.7,0,1.4-0.2,2.1c-0.2,0.7-0.6,1.2-1.1,1.6
		c-0.5,0.4-1.2,0.6-2.1,0.6c-1.1-0.1-2-0.5-2.6-1.1c-0.7-0.7-1.3-1.4-1.9-2.3c-1.6,1.3-3.3,2.3-5.1,2.8c-1.7,0.5-3.5,0.6-5.1,0.4
		c-1.7-0.3-3.3-1-4.7-2.1c-1.5-1.1-2.7-2.6-3.7-4.5c-0.9-1.8-1.4-3.7-1.5-5.9c-0.1-2.1-0.1-4.2-0.1-6.1c0-0.7,0-1.3,0.1-2
		c0-0.7,0.1-1.3,0.1-2.1c0-0.6,0.1-1.1,0.1-1.6c0-0.5,0-1,0.1-1.5c0.1-0.5,0.2-0.9,0.4-1.4c0.2-0.5,0.5-0.9,0.8-1.3
		c0.5-0.6,1.1-0.9,1.8-1c0.7-0.1,1.4,0,2.1,0.2c0.6,0.3,1.2,0.6,1.7,1.2c0.5,0.5,0.7,1.2,0.8,1.9c0.1,2.1,0,4.3-0.2,6.6
		s-0.2,4.3,0,6.5c0.1,1,0.3,2,0.8,3.1c0.4,1.1,1.1,1.8,2.1,2.3c1,0.4,1.9,0.4,2.9-0.1s1.8-1.1,2.4-1.7c0.3-0.3,0.6-0.7,0.8-1.1
		c0.3-0.4,0.6-0.7,0.9-1c-0.2-1.5-0.3-3-0.3-4.4c0-1.5,0-3,0-4.4c0-0.8,0-1.7,0.1-2.6c0.1-0.9,0.2-1.9,0.5-2.7
		c0.3-0.9,0.7-1.6,1.2-2.3c0.5-0.6,1.3-1.1,2.3-1.2c0.5-0.1,0.9,0,1.4,0.1c0.4,0.2,0.8,0.4,1.2,0.7c0.6,0.5,1,1.1,1.2,1.7
		s0.3,1.3,0.3,2s0,1.4-0.2,2.2c-0.1,0.7-0.2,1.4-0.2,2.1c-0.1,1.2-0.1,2.4-0.2,3.7c0,1.3,0,2.6,0.1,3.9s0.4,2.6,0.7,3.8
		C93,37.8,93.5,38.9,94.2,39.9L94.2,39.9L94.2,39.9z"/>
	<path fill="#FF9900" d="M98.2,40.6c-0.2-0.7-0.4-1.4-0.3-2.1c0-0.7,0.2-1.3,0.5-1.9c0.3-0.6,0.8-1,1.4-1.3s1.3-0.4,2.1-0.3
		c0.5,0,0.9,0.2,1.3,0.4c0.4,0.2,0.7,0.5,1,0.8c0.3,0.3,0.6,0.6,1,1c0.3,0.3,0.6,0.6,1,0.9c0.7,0.6,1.5,1,2.3,1.2
		c0.8,0.3,1.6,0.4,2.5,0.6c0.6,0,1.1-0.1,1.4-0.4c0.4-0.3,0.6-0.6,0.7-1.1c0.1-0.4,0.2-0.9,0.1-1.4s-0.2-0.9-0.5-1.2
		c-0.7-0.7-1.6-1.2-2.6-1.4c-1-0.2-2-0.5-2.9-0.8c-1.3-0.4-2.5-1-3.7-1.6c-1.2-0.7-2.2-1.6-3-2.7c-0.8-1.2-1.3-2.4-1.4-3.8
		c-0.2-1.3,0-2.6,0.3-3.9c0.4-1.3,1-2.4,1.8-3.5s1.9-1.9,3-2.6c0.9-0.5,1.9-0.8,2.9-1c1.1-0.1,2.1-0.2,3.2-0.1
		c1.1,0.1,2.1,0.3,3.2,0.6c1.1,0.3,2,0.7,2.9,1c1,0.5,1.8,1.1,2.3,2c0.5,0.8,0.8,1.7,0.7,2.6c0,0.9-0.3,1.6-0.9,2.2
		c-0.6,0.6-1.4,0.9-2.5,0.9c-0.7,0-1.3-0.1-1.8-0.3c-0.5-0.2-1.1-0.5-1.7-0.7c-0.8-0.3-1.6-0.5-2.5-0.6c-0.9-0.1-1.6-0.1-2.1,0.2
		c-0.2,0-0.4,0.2-0.6,0.4c-0.2,0.2-0.4,0.5-0.5,0.9c-0.1,0.3-0.1,0.7-0.1,1c0.1,0.3,0.3,0.6,0.7,0.8c1,0.5,2.1,1,3.2,1.3
		c1.1,0.3,2.3,0.6,3.3,1c1.1,0.4,2.1,0.9,3.1,1.5c0.9,0.6,1.7,1.4,2.4,2.5c0.9,1.6,1.4,3.3,1.4,5s-0.3,3.4-1,4.9s-1.8,2.8-3.2,3.9
		c-1.4,1.1-3,1.7-4.9,1.9c-1.3,0.1-2.6,0-3.8-0.2c-1.3-0.3-2.5-0.7-3.7-1.3c-1.2-0.6-2.3-1.3-3.3-2.2c-1-0.8-1.9-1.7-2.7-2.6
		L98.2,40.6L98.2,40.6z"/>
	<path fill="#CCCC33" d="M125.9,6.8c0.2-1.6,0.7-2.7,1.6-3.4c0.9-0.7,1.9-1.1,2.9-1.1c1,0,1.9,0.4,2.8,1.2c0.9,0.8,1.3,1.8,1.4,3.2
		c0.1,1.4-0.3,2.5-1.1,3.3c-0.8,0.8-1.8,1.2-2.8,1.3c-1,0.1-2-0.2-3-0.9c-0.9-0.7-1.5-1.7-1.7-3.2L125.9,6.8L125.9,6.8z M134.3,43.1
		c-0.1,0.9-0.4,1.6-0.9,2.2c-0.5,0.6-1.1,1.1-1.7,1.4c-0.6,0.3-1.4,0.4-2.1,0.2c-0.8-0.2-1.4-0.6-2-1.4c-0.3-0.4-0.6-0.9-0.7-1.4
		s-0.2-1.1-0.3-1.6c0-0.6,0-1.1,0-1.7c0-0.6,0-1.1,0-1.5c0-2.5,0-4.9,0-7.5c0-2.4,0-4.9,0-7.5c0-1-0.1-2-0.2-3.1
		c-0.1-1-0.1-2.1,0.2-3.1c0.2-0.8,0.6-1.4,1.1-2c0.5-0.5,1.1-0.9,1.8-1.1c0.6-0.2,1.3-0.2,2-0.1c0.7,0.2,1.3,0.6,1.8,1.3
		c0.7,0.8,1,1.7,1,2.5s0,1.8,0,3c0,1.4,0,2.9,0,4.3s0,2.8,0.1,4.2c0,2,0.1,4.1,0.1,6.1s0,4.1,0,6.1L134.3,43.1L134.3,43.1z"/>
	<path fill="#663399" d="M196.4,43.2c-0.1,1.1-0.5,1.9-1.2,2.6s-1.4,1.1-2.2,1.3c-0.8,0.2-1.6,0.1-2.4-0.3c-0.8-0.4-1.3-1.1-1.6-2.2
		c-0.4-1.2-0.5-2.4-0.4-3.7c0.1-1.3,0.1-2.5,0.1-3.6c0-2.3,0-4.5,0-6.9s-0.1-4.5-0.3-6.9c0-0.1-0.1-0.2-0.1-0.2
		c0-0.1-0.1-0.2-0.3-0.3c-1-0.3-2-0.2-3.1,0.2c-1.1,0.4-2,0.9-2.8,1.5c-0.7,0.5-1.3,1.3-2,2.2c-0.6,0.9-1,1.9-1,2.8v8.8
		c0,0.7,0,1.4,0.1,2.2c0,0.8,0,1.6-0.1,2.3c-0.1,0.8-0.4,1.5-0.7,2.1c-0.4,0.6-1,1.1-1.8,1.4c-0.5,0.2-0.9,0.2-1.3,0.2
		s-0.8-0.2-1.3-0.3c-0.8-0.3-1.3-0.7-1.7-1.3c-0.3-0.6-0.6-1.3-0.7-2s-0.2-1.4-0.2-2c0-0.6,0-1.2,0-1.5c0-1,0-2.4,0-4.2
		c0-1.8,0-3.8,0-5.8s0-4,0-5.8s0-3.2,0-4.2c0-0.9,0.3-1.7,0.8-2.3c0.5-0.6,1.2-1,1.9-1.2s1.5-0.1,2.3,0.1c0.8,0.3,1.5,0.8,2.1,1.7
		c1.7-1.1,3.5-1.8,5.6-2.2c2-0.4,3.9-0.3,5.7,0.2c1.8,0.5,3.3,1.5,4.5,2.8c1.2,1.4,1.8,3.3,1.9,5.8c0,0.1,0,0.3,0.1,0.8
		c0,0.4,0.1,1,0.1,1.8L196.4,43.2L196.4,43.2z"/>
	<path fill="#99CCFF" d="M147.4,31c-0.1,0.7-0.2,1.3-0.3,2c-0.1,0.6-0.1,1.3,0,2c0.1,1,0.4,1.9,0.8,2.6c0.4,0.8,0.9,1.4,1.6,1.9
		c0.6,0.5,1.4,0.7,2.2,0.7c0.8,0,1.7-0.2,2.7-0.8c1.2-0.7,2.3-1.8,3.2-3.3c0.9-1.5,1.4-3.1,1.6-4.7c0.2-1.6,0-3.2-0.5-4.6
		c-0.6-1.5-1.6-2.5-3.2-3.1c-1,0-2,0.2-2.9,0.6c-0.9,0.4-1.7,0.9-2.3,1.6c-0.6,0.6-1.2,1.4-1.7,2.3C148.1,29.1,147.7,30,147.4,31
		L147.4,31L147.4,31z M139.7,29.6c0.3-1.2,0.7-2.4,1.2-3.6c0.5-1.2,1.2-2.3,1.9-3.4c0.8-1.1,1.6-2.1,2.6-2.9c0.9-0.9,2-1.6,3.1-2.1
		c1.9-1,3.9-1.5,5.8-1.5c2,0,3.8,0.4,5.5,1.2c1.7,0.8,3.1,2,4.3,3.6c1.2,1.6,2,3.5,2.3,5.6c0.2,1.4,0.3,2.8,0.3,4.1
		c0,1.3-0.1,2.6-0.4,4c-0.4,2-1.3,4-2.6,5.9c-1.3,1.9-2.8,3.6-4.6,4.9c-1.8,1.3-3.7,2.2-5.9,2.6c-2.1,0.4-4.3,0.1-6.5-1
		c-1-0.5-1.8-1-2.6-1.6c-0.8-0.6-1.5-1.3-2.1-2.2c-0.7-0.9-1.3-1.9-1.7-2.9c-0.4-1-0.7-2.1-1-3.2c-0.3-1.2-0.4-2.4-0.3-3.6
		s0.2-2.4,0.4-3.5L139.7,29.6L139.7,29.6z"/>
</g>
</svg>
